<?xml version="1.0" standalone="no"?>
<!DOCTYPE svg PUBLIC "-//W3C//DTD SVG 20010904//EN"
 "http://www.w3.org/TR/2001/REC-SVG-20010904/DTD/svg10.dtd">
<svg version="1.0" xmlns="http://www.w3.org/2000/svg"
 width="770.000000pt" height="770.000000pt" viewBox="0 0 770.000000 770.000000"
 preserveAspectRatio="xMidYMid meet">
<metadata>
Created by potrace 1.11, written by Peter Selinger 2001-2013
</metadata>
<g transform="translate(0.000000,770.000000) scale(0.100000,-0.100000)"
fill="#000000" stroke="none">
<path d="M2103 7506 c-23 -8 -45 -11 -49 -7 -4 3 -5 -1 -2 -9 3 -8 14 -14 26
-14 12 1 18 -4 16 -11 -3 -6 2 -12 10 -12 8 0 13 4 10 9 -3 4 1 8 8 8 19 0
135 -38 121 -39 -7 -1 -15 0 -17 2 -3 1 -15 -8 -28 -19 -13 -12 -33 -20 -45
-19 -13 1 -23 -3 -23 -8 0 -6 -3 -7 -6 -4 -4 3 -16 2 -27 -4 -15 -9 -18 -8
-12 3 5 7 -4 2 -19 -12 -31 -28 -55 -28 -121 0 -24 10 -46 16 -49 13 -3 -4 -6
-1 -6 6 0 7 -4 10 -9 7 -5 -4 -12 0 -14 6 -4 10 -6 10 -6 1 -1 -15 -31 -18
-31 -4 0 5 -8 12 -17 14 -16 4 29 11 50 8 4 0 7 4 7 9 0 10 -26 7 -75 -8 -11
-3 -22 -6 -25 -7 -62 -13 -70 -17 -60 -30 6 -8 20 -12 30 -10 14 3 17 -1 13
-13 -6 -15 -5 -15 10 -3 14 11 18 11 23 -2 3 -9 3 -20 0 -25 -3 -6 1 -15 9
-22 14 -11 13 -15 -5 -27 -11 -8 -20 -20 -19 -26 0 -9 2 -9 6 1 2 6 11 12 19
12 8 0 14 4 14 10 0 12 22 9 31 -4 4 -5 10 1 14 13 3 12 11 19 16 15 6 -4 6
-10 0 -18 -8 -9 -7 -13 4 -13 8 0 13 3 10 5 -3 3 1 12 8 20 10 13 9 14 -2 7
-9 -5 -12 -4 -7 3 4 7 -3 9 -20 6 -22 -4 -25 -2 -20 13 6 17 5 17 -7 1 -16
-20 -28 -14 -20 10 4 15 3 15 -6 2 -6 -8 -11 -10 -11 -4 0 18 13 24 27 13 7
-6 13 -8 13 -4 0 4 7 2 15 -5 8 -7 15 -9 15 -5 0 5 9 0 21 -11 12 -10 24 -18
28 -16 3 1 7 -14 9 -35 1 -20 8 -40 14 -44 15 -9 -1 -32 -18 -25 -8 3 -14 2
-14 -3 0 -5 -9 -11 -20 -14 -12 -3 -18 -1 -14 5 4 6 -5 3 -19 -7 -25 -16 -42
-42 -38 -59 1 -5 -5 -6 -13 -3 -9 4 -18 2 -21 -4 -4 -5 -3 -9 2 -8 22 4 24 -3
7 -23 -19 -22 -19 -22 0 -8 18 14 19 13 12 -15 -4 -19 -3 -25 2 -16 7 9 12 10
16 2 4 -6 4 -11 0 -11 -3 0 -1 -7 6 -15 7 -8 9 -15 4 -15 -5 0 -2 -5 6 -10 8
-5 10 -10 3 -10 -6 0 -10 -8 -8 -17 4 -26 -13 -53 -29 -47 -7 3 -20 -2 -29
-10 -8 -8 -17 -13 -20 -10 -2 3 -4 -20 -2 -50 1 -46 7 -60 28 -80 14 -13 23
-27 20 -30 -4 -3 -1 -6 7 -6 10 0 10 -4 -1 -17 -8 -9 -9 -14 -3 -10 8 4 11 -7
9 -36 -1 -23 3 -45 9 -49 7 -5 -2 -13 -22 -20 -18 -7 -30 -18 -28 -25 3 -6 -1
-17 -9 -23 -11 -9 -14 -7 -13 12 2 27 17 50 28 43 5 -3 11 -1 14 4 7 10 -13 9
-31 -2 -8 -5 -11 2 -11 23 1 17 -2 33 -5 37 -4 3 -2 12 4 20 9 9 8 13 0 13
-18 0 -12 20 7 21 15 0 15 1 -2 8 -14 5 -16 10 -8 15 7 4 18 4 25 1 6 -4 3 1
-7 9 -20 16 -22 25 -27 114 -1 28 -6 52 -10 52 -7 0 -6 -67 6 -280 10 -177 18
-368 19 -442 1 -57 5 -78 14 -78 7 0 11 -4 7 -9 -3 -5 -2 -12 3 -15 4 -2 8 6
8 20 0 13 -3 24 -6 24 -10 0 -10 49 0 55 6 3 10 12 10 18 0 7 -4 6 -10 -3 -8
-12 -10 -10 -10 10 0 15 6 32 13 39 10 10 9 12 -2 9 -20 -4 -21 43 -1 60 12
10 12 12 1 10 -11 -2 -14 13 -15 69 -1 39 -4 74 -8 78 -4 4 -5 13 -2 21 2 8 6
21 9 30 3 8 10 12 15 9 8 -5 7 -11 -1 -21 -6 -8 -7 -14 -2 -14 6 0 10 -10 9
-22 0 -13 5 -23 12 -24 6 -1 21 -2 32 -3 13 -1 20 -8 20 -21 0 -11 5 -20 10
-20 6 0 10 -11 10 -25 0 -14 7 -37 16 -50 10 -15 12 -25 5 -25 -6 0 -10 -6 -8
-12 1 -8 -7 -13 -20 -12 -13 1 -20 -3 -17 -7 3 -5 10 -7 15 -4 5 4 9 -1 9 -10
0 -9 -5 -13 -11 -9 -6 3 -3 -5 6 -20 10 -14 14 -26 10 -26 -3 0 1 -7 9 -16 25
-24 19 -40 -6 -18 -14 12 -18 13 -10 3 6 -9 9 -18 6 -21 -6 -7 46 -2 66 6 10
4 21 -5 34 -26 11 -18 19 -36 18 -40 -1 -5 3 -8 8 -8 6 0 10 -9 10 -20 0 -11
6 -20 13 -20 13 -1 -18 -21 -36 -24 -7 -1 -18 -6 -26 -10 -10 -7 -12 -5 -7 5
4 8 2 7 -6 -2 -7 -9 -21 -15 -31 -13 -14 2 -18 -2 -14 -17 3 -10 1 -22 -4 -25
-5 -3 -9 0 -9 7 0 7 -8 9 -22 4 -13 -3 -31 -8 -40 -9 -10 -1 -21 -5 -24 -9
-15 -15 -19 -5 -22 50 -1 32 -6 61 -11 66 -5 5 -6 -39 -4 -100 10 -207 10
-198 -14 -201 -17 -3 -24 -13 -32 -50 -5 -26 -6 -49 -2 -52 21 -15 49 -82 54
-128 5 -51 4 -54 -23 -70 -27 -15 -29 -21 -24 -57 6 -37 19 -56 58 -80 16 -10
19 -38 31 -325 2 -41 4 -81 4 -87 1 -7 5 -13 10 -13 4 0 6 29 4 65 -5 68 -2
75 24 50 13 -13 13 -18 1 -33 -12 -15 -11 -16 5 -3 20 16 37 7 19 -11 -7 -7
-12 -16 -12 -22 0 -5 6 -2 13 9 12 15 15 16 23 4 5 -8 9 -22 10 -31 1 -10 2
-19 4 -20 1 -2 3 -19 5 -38 3 -50 4 -52 14 -46 17 11 19 -19 2 -39 -16 -20
-16 -20 6 -2 14 12 27 16 35 11 15 -10 31 -12 38 -4 15 15 69 27 79 17 14 -14
14 -49 1 -65 -7 -9 -7 -9 2 -2 15 13 39 -6 31 -26 -5 -14 3 -17 62 -17 40 0
69 6 76 16 3 5 12 9 20 10 24 4 40 18 33 30 -4 7 1 4 11 -5 13 -12 24 -14 41
-8 18 7 24 5 29 -11 4 -11 11 -16 18 -13 8 5 8 2 0 -7 -17 -17 -17 -37 -1 -21
7 7 17 12 23 12 5 0 3 -5 -5 -10 -9 -6 -11 -10 -3 -10 7 0 10 -7 6 -17 -4 -11
-3 -14 5 -9 7 4 12 2 12 -3 0 -6 -5 -11 -11 -11 -8 0 -9 -4 0 -13 6 -8 8 -17
4 -20 -6 -6 12 -11 30 -8 4 1 2 -8 -5 -18 -7 -11 -16 -17 -20 -15 -5 3 -6 10
-3 15 3 5 -1 6 -9 3 -12 -5 -12 -8 2 -23 9 -9 20 -13 23 -8 4 5 9 3 13 -4 3
-8 3 -4 1 7 -7 27 19 39 40 18 11 -11 12 -20 5 -33 -5 -10 -7 -21 -4 -24 9 -9
-19 -2 -36 8 -15 10 -20 11 -41 14 -5 0 -8 5 -5 9 3 5 -9 16 -25 26 -24 14
-28 20 -18 32 9 11 8 14 -2 14 -11 0 -11 2 -1 8 9 6 5 12 -13 22 -27 15 -31
25 -13 36 6 4 8 3 5 -2 -3 -6 4 -10 16 -11 12 0 16 1 9 4 -6 3 -10 9 -7 13 3
5 1 11 -4 14 -5 4 -19 -6 -30 -20 -12 -15 -21 -22 -21 -16 0 8 -28 10 -37 2
-2 -2 -6 -3 -10 -5 -5 -1 -16 -5 -25 -9 -9 -4 -23 -9 -31 -10 -8 -1 -22 -7
-30 -14 -11 -10 -17 -9 -27 3 -15 18 -35 20 -24 3 4 -6 3 -8 -3 -5 -6 4 -16 0
-23 -9 -7 -8 -19 -13 -27 -10 -7 3 -13 2 -13 -2 0 -4 -13 -15 -29 -25 -25 -15
-30 -15 -41 -2 -6 8 -8 20 -4 27 5 10 4 10 -6 1 -11 -10 -11 -16 2 -30 8 -10
18 -28 21 -41 4 -19 2 -22 -11 -18 -15 5 -15 4 -2 -7 28 -23 21 -37 -25 -49
-25 -7 -45 -16 -45 -21 0 -4 -4 -6 -9 -2 -6 3 -8 -4 -6 -15 2 -11 -1 -20 -6
-20 -6 0 -7 -5 -4 -10 4 -6 1 -18 -7 -27 -9 -12 -9 -15 0 -9 8 5 12 0 12 -14
0 -12 4 -18 10 -15 14 9 12 -19 -2 -34 -11 -10 -10 -11 3 -6 10 4 20 2 24 -4
3 -6 2 -11 -4 -11 -5 0 -8 -11 -7 -25 2 -14 -2 -29 -8 -33 -15 -11 -41 -8 -39
4 1 6 -5 11 -13 11 -13 0 -13 -2 0 -15 10 -11 12 -21 5 -38 -4 -13 -5 -24 0
-24 4 0 7 -12 5 -26 -2 -18 6 -35 27 -55 33 -32 37 -44 12 -35 -16 5 -16 4 1
-8 10 -8 20 -30 22 -48 2 -18 6 -38 8 -45 6 -14 -19 -37 -32 -29 -5 3 -9 -1
-9 -9 0 -8 4 -12 8 -10 4 3 10 -2 13 -11 4 -11 2 -15 -7 -11 -8 3 -14 -1 -14
-8 0 -7 7 -12 16 -11 20 1 27 -34 9 -45 -9 -6 -5 -8 12 -7 18 2 24 -1 22 -12
-3 -12 -1 -13 9 -2 19 17 34 15 19 -4 -11 -12 -11 -15 1 -12 9 2 14 -5 13 -19
0 -12 4 -21 10 -20 6 1 10 -6 10 -15 -1 -10 4 -18 10 -18 18 0 14 -62 -4 -78
-8 -8 -10 -11 -4 -8 10 5 41 -28 33 -36 -10 -11 34 -39 62 -40 24 -1 27 -3 15
-10 -9 -5 -20 -7 -24 -4 -4 2 -8 -4 -8 -14 0 -12 5 -16 16 -12 13 5 13 4 0
-13 -9 -11 -10 -16 -2 -11 6 4 12 2 12 -3 0 -6 -4 -11 -9 -11 -4 0 -7 -16 -6
-35 1 -19 -1 -33 -3 -30 -3 2 -14 0 -25 -6 -13 -7 -17 -7 -13 -1 3 6 2 14 -4
17 -6 4 -10 3 -9 -2 4 -23 -4 -32 -31 -38 -16 -4 -31 -10 -31 -13 -1 -4 -3
-17 -4 -30 -1 -12 -5 -25 -8 -28 -3 -3 8 -33 24 -67 21 -45 26 -64 17 -74 -7
-9 -7 -13 0 -13 18 0 6 -53 -16 -68 -17 -11 -19 -19 -12 -43 7 -25 1 -37 -13
-26 -2 1 -12 -6 -22 -16 -21 -22 -36 -8 -29 28 2 13 -3 28 -13 36 -15 12 -16
12 -8 -1 6 -8 10 -30 11 -49 1 -25 -3 -35 -17 -38 -11 -3 -19 -15 -20 -27 -3
-76 6 -69 -244 -173 -107 -45 -140 -67 -138 -93 1 -14 4 -68 8 -120 3 -52 8
-133 11 -180 3 -47 7 -114 9 -150 1 -36 6 -119 10 -185 4 -66 9 -142 10 -168
1 -26 4 -49 6 -51 18 -15 122 -76 129 -76 6 0 10 -4 10 -10 0 -5 4 -10 9 -10
4 0 71 -38 147 -85 156 -94 244 -147 259 -155 23 -12 110 -64 115 -70 5 -5 32
-21 75 -44 11 -6 63 -37 115 -69 52 -32 104 -63 115 -70 11 -6 32 -19 47 -29
15 -10 42 -26 60 -36 18 -11 353 -212 743 -447 391 -235 737 -444 770 -464 33
-20 67 -40 76 -46 9 -5 34 -20 56 -32 l39 -21 35 20 c19 12 50 31 69 43 40 25
517 307 584 345 25 14 56 34 70 45 l26 20 5 245 c5 224 15 577 17 625 3 63 -1
71 -49 95 -27 13 -50 24 -53 25 -3 0 -9 3 -15 7 -5 3 -59 32 -120 63 -60 32
-115 62 -122 69 -6 6 -39 76 -72 156 -33 80 -80 195 -106 255 -25 61 -53 128
-62 150 -9 22 -21 43 -26 46 -5 3 -8 9 -7 13 2 10 -23 76 -30 76 -3 0 -6 8 -7
18 -1 9 -11 38 -22 64 -16 37 -17 50 -8 58 7 6 161 83 342 173 182 90 551 273
820 406 l491 243 1 37 c2 39 12 251 18 366 2 39 6 135 10 215 3 80 7 154 9
166 4 19 -21 31 -242 119 -136 54 -265 106 -287 115 -84 37 -70 41 -373 -96
-64 -29 -76 -30 -63 -6 8 14 4 27 -14 55 -14 20 -25 41 -25 46 0 6 -4 11 -9
11 -5 0 -8 8 -6 18 2 9 7 34 10 54 5 31 11 38 40 48 37 12 38 14 35 70 -2 52
-8 65 -35 80 -13 7 -22 17 -19 22 3 5 0 16 -7 24 -6 8 -9 17 -5 21 3 3 6 1 6
-5 0 -7 5 -12 11 -12 6 0 8 7 5 16 -3 9 -3 21 1 27 4 6 8 20 9 32 1 11 5 33 8
49 4 21 0 33 -12 43 -12 10 -13 12 -2 8 12 -4 15 4 13 42 -1 27 -3 72 -4 100
-1 34 -5 51 -12 46 -6 -4 -7 -1 -1 8 9 15 13 179 4 179 -3 0 -5 15 -5 33 0 17
-3 42 -7 55 -5 13 -11 45 -14 70 -3 26 -9 49 -12 52 -4 3 -8 17 -9 33 -1 53
-3 58 -15 51 -7 -5 -8 -3 -3 7 10 15 11 46 2 69 -3 8 -20 56 -39 105 -18 50
-38 96 -45 103 -7 8 -11 18 -8 23 4 5 2 9 -2 9 -20 0 -10 38 14 51 20 11 24
19 20 44 -11 64 -25 85 -56 85 -39 0 -61 9 -61 26 0 8 -3 14 -8 14 -4 0 -21
24 -38 53 -26 43 -31 62 -30 110 1 31 -1 57 -4 57 -3 0 -18 12 -35 26 -29 25
-39 26 -105 11 -8 -2 -28 9 -45 24 -134 120 -236 199 -326 254 -59 36 -111 65
-117 65 -6 0 -12 3 -14 8 -4 10 -46 34 -153 89 -99 50 -105 55 -105 95 0 22
-8 32 -40 48 -38 19 -44 20 -90 6 -63 -19 -114 -11 -135 20 -12 19 -20 22 -38
15 -12 -4 -31 -6 -42 -4 -11 2 -27 6 -35 7 -8 2 -26 8 -40 13 -27 11 -53 6
-44 -8 3 -5 0 -9 -6 -9 -7 0 -9 8 -5 20 5 14 2 20 -10 20 -9 0 -14 -4 -11 -8
3 -5 -1 -9 -8 -9 -7 0 -13 7 -12 15 1 8 -12 19 -29 25 -16 6 -36 19 -43 29
-11 15 -21 17 -48 12 -51 -9 -119 42 -139 106 -18 58 -24 62 -78 57 -87 -7
-137 -23 -137 -43 0 -8 -3 -14 -8 -14 -4 0 -102 32 -217 70 -116 39 -221 72
-235 75 -14 2 -101 29 -194 60 -93 30 -170 55 -170 54 -1 0 -20 -6 -43 -13z
m-271 -200 c3 3 8 1 12 -4 11 -18 -25 -8 -41 12 -18 21 -18 21 3 3 11 -9 23
-14 26 -11z m875 -19 c40 -13 76 -27 80 -30 3 -4 16 -7 29 -7 29 0 54 -10 54
-22 0 -5 -4 -7 -8 -4 -5 3 -9 -1 -9 -9 0 -10 4 -12 12 -5 7 5 16 6 20 2 5 -4
5 -1 1 6 -4 6 -2 12 3 12 6 0 11 -6 11 -12 0 -9 3 -9 8 -2 10 14 46 -6 50 -28
2 -12 -4 -16 -23 -14 -14 2 -25 -1 -25 -7 0 -6 -3 -8 -6 -4 -4 3 -22 0 -40 -8
-19 -8 -34 -11 -35 -7 -1 4 -5 -4 -10 -18 -8 -22 -8 -21 -4 8 3 20 0 32 -7 32
-6 0 -9 3 -5 6 3 4 -4 15 -16 25 -17 15 -19 20 -9 27 11 7 10 10 -3 15 -9 4
-13 3 -10 -3 8 -12 8 -12 -33 -1 -18 6 -30 6 -27 1 2 -4 -3 -10 -13 -12 -25
-6 -53 2 -47 13 4 5 -1 9 -10 9 -9 0 -13 5 -10 10 3 6 2 10 -2 10 -5 0 -9 9
-10 20 -2 25 6 25 94 -3z m-140 -134 c5 3 9 -2 9 -12 0 -10 -6 -18 -13 -18 -7
0 -10 4 -7 8 2 4 0 10 -6 14 -5 3 -10 12 -10 18 0 8 3 7 9 -2 5 -7 13 -11 18
-8z m53 -22 c8 -2 21 -4 28 -4 6 0 12 -4 12 -8 0 -5 8 -6 18 -3 14 5 15 4 2
-6 -12 -9 -8 -10 18 -5 20 4 32 3 32 -4 0 -6 6 -8 14 -5 7 3 20 -1 27 -8 8 -7
20 -13 27 -13 6 0 12 -3 12 -7 0 -5 0 -12 0 -18 0 -5 -5 -10 -11 -10 -8 0 -8
5 1 15 14 17 1 21 -18 5 -6 -6 -10 -7 -7 -4 6 9 -14 34 -27 34 -6 0 -4 -8 3
-17 12 -16 12 -17 -2 -6 -9 7 -20 9 -24 5 -5 -4 -5 -1 -1 6 7 12 2 14 -46 14
-16 1 -25 5 -21 11 4 6 0 8 -11 4 -10 -4 -19 -1 -22 8 -4 8 -10 12 -15 9 -5
-3 -6 -11 -3 -17 4 -7 3 -9 -1 -4 -5 4 -10 18 -12 30 -2 12 0 18 4 12 5 -5 15
-12 23 -14z m234 -70 c3 -4 0 -16 -7 -25 -11 -15 -13 -15 -15 8 -2 25 11 35
22 17z m681 -42 c-4 -6 -13 -8 -20 -5 -8 3 -15 -6 -18 -27 -2 -18 0 -34 5 -35
5 -2 4 -10 -3 -18 -9 -11 -9 -14 0 -14 7 0 9 -5 6 -10 -7 -11 -28 6 -38 30 -4
12 -6 11 -6 -2 -1 -10 -7 -18 -13 -18 -7 0 -23 -3 -34 -6 -17 -4 -22 0 -26 20
-4 19 -1 26 11 27 13 1 13 2 -1 6 -22 6 -22 16 -2 59 15 32 34 46 34 25 0 -5
9 -7 20 -4 18 5 25 -5 21 -30 -1 -5 3 -6 9 -2 6 3 8 10 5 15 -6 10 15 8 33 -3
6 -5 12 -4 12 2 0 5 -4 13 -10 16 -5 3 -10 11 -10 18 0 6 7 1 16 -11 8 -12 12
-27 9 -33z m23 16 c-3 -3 -9 2 -12 12 -6 14 -5 15 5 6 7 -7 10 -15 7 -18z
m-620 -4 c12 -6 28 -9 34 -5 7 5 8 3 3 -6 -6 -10 -4 -12 9 -7 9 4 14 3 11 -2
-3 -5 -1 -12 5 -16 5 -3 10 0 11 7 0 7 5 3 11 -9 6 -13 15 -23 20 -23 12 0 10
14 -4 29 -10 11 -8 11 9 0 20 -12 21 -16 9 -28 -13 -12 -21 -10 -64 18 -48 30
-68 39 -59 24 3 -5 -5 -8 -18 -8 -19 0 -21 3 -14 17 7 13 5 16 -11 15 -14 -1
-19 -6 -15 -17 5 -11 3 -12 -6 -3 -29 28 22 39 69 14z m656 11 c3 -5 -1 -9 -9
-9 -8 0 -15 4 -15 9 0 4 4 8 9 8 6 0 12 -4 15 -8z m-479 -64 c5 4 5 1 0 -7 -6
-10 -3 -12 12 -7 30 9 47 -15 28 -40 -15 -19 -15 -19 -8 0 5 15 3 17 -8 11
-12 -8 -12 -6 0 8 18 23 -2 22 -25 0 -17 -17 -17 -17 -11 -1 3 10 2 20 -3 23
-4 3 -10 -1 -13 -7 -2 -8 -8 -9 -13 -4 -5 5 -4 11 4 13 6 3 9 10 5 16 -5 8 -2
8 9 0 8 -7 19 -9 23 -5z m123 -40 c6 -1 12 -4 12 -8 0 -4 -17 -6 -39 -6 -29 0
-37 4 -33 14 3 9 12 11 26 7 11 -4 27 -7 34 -7z m42 -23 c5 3 16 -2 24 -11 12
-11 16 -12 16 -2 0 8 3 9 8 3 7 -10 24 -16 54 -19 10 -1 21 -6 25 -11 5 -4 2
-5 -4 -1 -9 5 -13 1 -13 -11 -1 -17 -1 -17 -11 0 -7 12 -17 16 -30 12 -11 -4
-19 -2 -19 6 0 8 -5 8 -17 -2 -9 -8 -14 -9 -11 -4 10 17 -30 40 -44 25 -8 -8
-48 -6 -48 2 0 5 9 6 20 3 14 -4 22 -1 27 11 4 11 8 13 11 6 2 -7 7 -10 12 -7z
m5 -35 c3 -6 -1 -7 -9 -4 -18 7 -21 14 -7 14 6 0 13 -4 16 -10z m165 -21 c0
-5 5 -7 11 -4 6 4 5 -2 -2 -13 -12 -19 -14 -19 -26 -4 -17 23 -16 32 2 32 8 0
15 -5 15 -11z m-80 -9 c0 -5 -2 -10 -4 -10 -3 0 -8 5 -11 10 -3 6 -1 10 4 10
6 0 11 -4 11 -10z m50 -15 c14 -18 13 -19 -1 -8 -9 7 -19 10 -23 6 -4 -4 -4 1
0 10 3 10 7 17 8 15 1 -2 8 -12 16 -23z m120 -20 c9 -8 19 -12 22 -9 9 9 59
-27 52 -37 -3 -5 -10 -7 -15 -4 -5 4 -9 1 -9 -4 0 -6 -5 -11 -12 -11 -9 0 -9
3 0 12 19 19 14 29 -7 16 -17 -10 -23 -9 -40 6 -15 13 -21 15 -21 6 0 -7 -3
-10 -7 -6 -5 4 0 13 10 21 14 10 15 14 3 18 -8 3 -17 0 -20 -8 -3 -8 -14 -13
-24 -12 -16 1 -18 4 -9 19 13 20 50 17 77 -7z m232 -124 c20 -26 23 -41 7 -41
-5 0 -8 4 -5 8 3 5 -6 15 -19 22 -13 7 -26 18 -29 25 -8 21 26 10 46 -14z
m-58 10 c3 -5 -1 -11 -9 -14 -9 -4 -12 -1 -8 9 6 16 10 17 17 5z m529 -13 c18
-12 35 -26 38 -31 3 -5 10 -9 15 -9 5 0 8 -4 7 -9 -2 -5 0 -8 5 -8 24 4 42 -3
42 -17 0 -8 4 -13 9 -9 10 6 66 -41 66 -55 0 -5 4 -12 9 -17 5 -5 6 -3 2 5 -4
6 -2 12 3 12 10 0 15 -13 13 -32 -1 -3 6 -12 16 -20 15 -12 16 -11 3 5 -15 19
-2 24 17 5 16 -16 15 -24 -3 -26 -8 -1 -22 -3 -30 -4 -8 -1 -15 -6 -15 -11 0
-5 -8 -3 -17 4 -10 7 -15 9 -11 5 13 -15 -35 -35 -52 -22 -13 10 -13 9 0 -8
16 -20 24 -150 9 -140 -5 3 -19 7 -31 9 -12 3 -28 11 -36 18 -11 12 -9 16 16
26 29 12 51 51 29 51 -6 0 -8 3 -4 6 3 4 -1 20 -9 36 -9 17 -12 28 -6 25 5 -4
9 -1 9 6 0 7 -14 13 -31 14 -56 3 -71 9 -74 32 -2 12 -8 19 -13 16 -5 -4 -9
-2 -9 4 0 5 6 12 13 14 7 4 6 6 -4 6 -20 1 -51 73 -42 98 7 20 23 43 30 43 3
0 19 -10 36 -22z m-418 -20 c5 4 5 1 1 -5 -4 -8 -1 -13 8 -13 9 0 16 -4 16 -8
0 -21 -29 -6 -45 22 -9 18 -11 24 -2 14 8 -10 18 -14 22 -10z m-11 -44 c5 -14
4 -15 -9 -4 -17 14 -19 20 -6 20 5 0 12 -7 15 -16z m66 12 c0 -2 -8 -10 -17
-17 -16 -13 -17 -12 -4 4 13 16 21 21 21 13z m-1453 -121 c2 -14 -1 -25 -6
-25 -6 0 -8 7 -5 15 5 11 1 14 -12 9 -18 -5 -18 -5 -1 6 9 6 14 17 11 23 -4 7
-3 8 1 4 5 -4 11 -19 12 -32z m611 -46 c10 -1 26 0 37 1 19 2 19 1 2 -17 -14
-16 -14 -20 -3 -20 8 0 14 5 13 10 -2 12 55 46 66 40 5 -3 0 -15 -10 -26 -18
-22 -18 -22 3 -4 26 21 38 22 30 1 -3 -9 -2 -12 5 -9 16 11 54 -37 58 -73 1
-18 -3 -40 -10 -48 -10 -12 -9 -13 7 -7 17 6 18 5 4 -12 -9 -11 -10 -16 -2
-11 8 5 12 0 12 -13 0 -24 -6 -25 -40 -6 -14 8 -35 14 -48 15 -13 0 -21 4 -18
8 3 5 0 9 -7 10 -31 2 -72 14 -75 22 -2 4 -12 6 -23 3 -11 -3 -29 2 -41 13
-15 13 -19 14 -14 4 5 -9 2 -8 -7 2 -8 10 -17 15 -20 11 -4 -3 -7 2 -8 13 -1
10 -2 33 -3 49 -1 17 3 36 8 44 8 11 8 13 -1 7 -7 -4 -13 -2 -13 3 0 6 9 11
20 11 10 0 25 6 32 14 11 12 14 10 21 -10 5 -13 16 -25 25 -25z m-607 -36 c13
-16 12 -17 -3 -4 -16 12 -18 11 -18 -4 0 -10 -3 -16 -6 -12 -6 6 2 37 9 37 3
0 11 -8 18 -17z m30 -30 c-12 -20 -14 -14 -5 12 4 9 9 14 11 11 3 -2 0 -13 -6
-23z m-36 -3 c-3 -5 -1 -10 6 -10 7 0 10 -3 6 -6 -9 -9 -28 6 -22 17 4 5 8 9
11 9 3 0 2 -4 -1 -10z m-1 -42 c-5 -7 -2 -9 9 -5 11 4 14 2 10 -9 -3 -7 -9
-14 -13 -14 -10 0 -20 26 -13 34 10 10 15 7 7 -6z m803 -110 c34 -18 44 -30
54 -65 9 -35 16 -43 34 -43 42 0 56 -12 87 -77 28 -60 29 -67 18 -112 -11 -46
-10 -51 16 -91 22 -33 32 -40 48 -35 60 19 74 17 106 -15 24 -25 32 -44 38
-88 6 -50 11 -59 42 -80 26 -18 43 -22 68 -17 30 6 34 3 48 -30 9 -22 19 -33
26 -29 8 5 9 2 5 -10 -4 -10 -4 -23 0 -29 4 -7 8 -15 8 -19 0 -5 5 -8 10 -9 6
0 17 -6 25 -12 9 -7 8 -4 -3 9 -9 11 -14 24 -10 28 5 4 3 6 -4 4 -6 -2 -12 1
-13 7 -1 11 89 37 102 29 4 -3 8 0 8 6 0 6 4 9 9 5 5 -3 13 0 17 6 4 8 9 7 15
-2 7 -11 9 -10 9 4 0 9 6 17 14 17 7 0 16 9 19 20 3 11 1 18 -4 14 -14 -8 -10
6 6 22 11 12 19 13 36 3 15 -7 19 -8 15 0 -7 10 12 16 42 12 6 -1 12 3 12 9 0
6 4 9 9 6 5 -4 11 -3 13 2 1 4 16 17 32 30 16 12 26 22 22 22 -4 0 -4 5 -1 10
5 8 11 7 21 -1 8 -6 14 -8 14 -3 0 5 12 -9 27 -31 15 -22 27 -43 25 -47 -1 -5
2 -8 8 -8 5 0 6 -7 3 -17 -4 -10 -2 -14 5 -9 6 3 14 1 18 -5 4 -8 3 -9 -4 -5
-7 4 -12 2 -12 -3 0 -6 6 -11 13 -12 8 0 8 -2 -2 -6 -11 -5 -11 -7 0 -15 11
-8 10 -9 -3 -5 -9 3 -18 1 -20 -4 -3 -9 -19 -14 -49 -18 -4 -1 -19 -11 -33
-22 -19 -15 -24 -24 -16 -29 9 -5 9 -9 1 -14 -6 -4 -11 -3 -11 2 0 14 -70 7
-79 -7 -5 -7 -11 -12 -15 -12 -18 3 -27 -1 -55 -25 -17 -14 -35 -23 -40 -19
-10 5 -9 -7 5 -54 5 -16 4 -22 -4 -17 -6 3 -14 1 -18 -5 -4 -7 -3 -9 2 -6 15
9 30 -5 37 -33 5 -20 2 -26 -11 -27 -9 -1 -24 -3 -32 -5 -8 -2 -14 2 -13 7 1
6 -12 11 -28 11 -32 2 -33 -6 -3 -10 10 -2 20 -9 22 -16 3 -9 -1 -11 -12 -7
-9 4 -16 2 -16 -3 0 -6 -7 -10 -16 -10 -8 0 -13 4 -10 8 3 5 -1 26 -8 47 -8
21 -13 46 -11 54 1 9 -2 19 -7 22 -6 4 -10 23 -11 44 -1 21 -3 33 -5 26 -2 -6
-7 -9 -12 -6 -7 4 2 -43 27 -140 9 -39 24 -109 42 -213 15 -78 15 -245 1 -312
-6 -30 -13 -73 -17 -95 -8 -56 -19 -74 -42 -68 -21 5 -56 47 -80 94 -11 23
-19 26 -49 23 -20 -2 -60 -13 -90 -25 -51 -21 -53 -23 -52 -58 3 -56 1 -59
-19 -54 -11 3 -40 -3 -65 -12 -42 -16 -47 -16 -98 0 -29 10 -73 29 -98 44 -25
14 -53 24 -63 23 -10 -2 -98 31 -195 73 l-178 76 -1 77 c-1 189 -8 330 -15
326 -5 -3 -3 6 4 21 9 19 9 28 0 37 -9 9 -8 15 1 27 10 12 9 13 -1 7 -12 -7
-12 -4 -2 14 9 17 9 24 0 30 -17 10 -17 15 -1 33 8 10 9 17 3 17 -7 0 -8 10
-2 30 5 17 5 32 0 35 -5 3 -6 22 -3 42 5 29 3 35 -8 28 -11 -7 -11 -5 1 9 13
16 12 20 -3 31 -14 10 -15 14 -4 18 10 4 13 29 10 108 -3 92 -1 104 17 121 12
11 17 24 13 31 -4 7 -9 21 -10 33 -3 17 7 24 53 40 47 16 59 25 76 57 l19 38
-23 48 c-33 66 -23 103 32 121 23 7 41 20 42 29 0 9 2 21 3 26 2 6 3 22 4 37
l1 26 53 -19 c28 -11 71 -29 94 -41z m-777 48 c0 -2 -9 -6 -20 -9 -11 -3 -18
-1 -14 4 5 9 34 13 34 5z m-6 -86 c-6 -5 -24 21 -24 34 0 6 6 1 14 -10 8 -10
12 -21 10 -24z m26 34 c0 -8 -19 -13 -24 -6 -3 5 1 9 9 9 8 0 15 -2 15 -3z
m-46 -42 c3 -5 -1 -9 -9 -9 -8 0 -12 4 -9 9 3 4 7 8 9 8 2 0 6 -4 9 -8z m-3
-45 c-10 -9 -11 -8 -5 6 3 10 9 15 12 12 3 -3 0 -11 -7 -18z m25 -17 c0 -11
-4 -20 -8 -20 -10 0 -11 24 -1 33 9 9 9 10 9 -13z m4 -51 c17 -13 18 -17 5
-10 -33 17 -51 31 -40 31 6 0 21 -10 35 -21z m-25 -9 c3 -5 1 -10 -4 -10 -6 0
-11 5 -11 10 0 6 2 10 4 10 3 0 8 -4 11 -10z m17 -54 c6 4 5 -2 -1 -15 -15
-27 -16 -27 -17 7 -1 15 1 21 3 14 3 -6 9 -9 15 -6z m23 -37 c-4 -5 -12 -9
-18 -8 -9 0 -8 2 1 6 6 2 9 10 6 15 -4 7 -2 8 5 4 6 -4 9 -12 6 -17z m0 -50
c1 -11 -6 -24 -15 -29 -12 -6 -17 -5 -17 5 0 8 7 11 16 7 12 -4 12 0 -3 17
-19 21 -19 21 -1 15 14 -6 16 -4 10 7 -4 8 -4 11 0 6 5 -4 9 -17 10 -28z
m1732 -14 c0 -8 -6 -16 -14 -19 -15 -6 -13 15 2 26 6 4 10 8 11 8 0 0 1 -7 1
-15z m428 -44 c-9 -8 -36 -10 -30 -2 2 4 11 8 20 8 8 0 13 -3 10 -6z m-2178
-33 c-3 -7 -5 -2 -5 12 0 14 2 19 5 13 2 -7 2 -19 0 -25z m-17 -8 c0 -5 -2
-10 -4 -10 -3 0 -8 5 -11 10 -3 6 -1 10 4 10 6 0 11 -4 11 -10z m35 -20 c3 -5
1 -10 -4 -10 -6 0 -11 5 -11 10 0 6 2 10 4 10 3 0 8 -4 11 -10z m-17 -35 c-3
-3 -9 2 -12 12 -6 14 -5 15 5 6 7 -7 10 -15 7 -18z m2155 -11 c-7 -20 -14 -18
-11 4 2 10 -2 16 -10 14 -8 -1 -11 2 -7 8 10 16 35 -8 28 -26z m51 8 c3 -5 -1
-9 -9 -9 -8 0 -15 4 -15 9 0 4 4 8 9 8 6 0 12 -4 15 -8z m-2246 -33 c2 -9 -4
-19 -13 -23 -13 -5 -14 -2 -4 17 11 19 10 20 -3 9 -13 -10 -17 -10 -21 1 -4
10 2 14 16 13 12 -1 23 -8 25 -17z m360 -51 c0 -41 -5 -79 -11 -87 -9 -12 -9
-13 1 -7 6 4 12 5 12 2 0 -2 3 -12 7 -22 4 -11 3 -15 -5 -10 -6 3 -14 2 -17
-4 -4 -6 -1 -9 5 -8 9 2 13 -29 14 -108 l3 -111 -29 2 c-15 1 -30 -1 -33 -4
-2 -4 9 -7 25 -7 17 1 29 -3 29 -8 0 -5 5 -13 13 -17 8 -6 9 -9 2 -9 -8 0 -9
-11 -4 -35 6 -25 5 -33 -4 -28 -6 4 -5 -1 3 -10 9 -12 10 -17 2 -17 -7 0 -9
-5 -4 -12 12 -21 14 -48 2 -48 -5 0 -7 -5 -3 -12 4 -6 9 -55 11 -107 3 -59 9
-98 16 -103 7 -5 3 -8 -13 -9 l-25 -2 24 -4 c17 -3 20 -7 11 -13 -8 -5 -9 -13
-4 -21 5 -8 9 -18 9 -24 1 -5 7 -9 14 -7 7 1 10 -2 6 -7 -7 -12 -35 -3 -35 10
0 13 -68 39 -85 33 -15 -6 -19 -18 -15 -39 1 -5 -2 -7 -6 -3 -4 4 -12 4 -18
-1 -18 -14 -57 -21 -49 -8 4 6 0 8 -10 4 -17 -6 -31 18 -20 35 3 6 1 8 -5 4
-9 -5 -23 31 -24 61 0 5 -4 16 -9 26 -8 15 -3 21 32 36 23 11 49 17 57 13 10
-3 13 -1 8 6 -4 7 -2 12 5 12 7 0 9 3 6 7 -4 3 1 12 11 20 9 8 13 12 7 10 -6
-3 -10 13 -10 38 0 24 -1 42 -3 40 -6 -6 -32 22 -32 34 0 6 -4 11 -9 11 -4 0
-9 27 -10 60 -2 57 0 61 26 72 15 6 31 11 34 10 4 -1 1 19 -7 43 -10 34 -10
45 -1 45 8 0 7 3 -2 9 -8 5 -10 14 -6 21 5 9 4 11 -4 6 -15 -10 -70 12 -73 28
0 6 -2 16 -3 21 -4 16 -5 24 -4 31 0 4 -4 10 -9 13 -16 9 -27 81 -13 81 7 0
10 -4 7 -9 -3 -5 2 -15 12 -22 15 -13 16 -12 3 4 -7 9 -10 17 -6 17 4 0 2 6
-4 13 -15 19 -1 30 18 14 14 -10 14 -10 3 5 -8 9 -11 21 -8 27 3 5 -1 11 -9
15 -35 13 -14 23 62 29 11 1 19 5 16 10 -2 4 -1 7 4 8 4 0 17 3 28 5 11 3 32
6 48 6 15 1 27 5 27 10 0 4 4 8 9 8 5 0 9 -33 9 -72z m-298 26 c0 -2 -8 0 -19
5 -10 6 -22 7 -26 3 -5 -4 -5 -1 -1 6 5 9 12 9 27 2 10 -6 19 -13 19 -16z m-7
-49 c-3 -9 -8 -14 -10 -11 -3 3 -2 9 2 15 9 16 15 13 8 -4z m1567 6 c0 -6 -4
-13 -10 -16 -5 -3 -10 1 -10 9 0 9 5 16 10 16 6 0 10 -4 10 -9z m-1598 -43
c-8 -8 -9 -4 -5 13 4 13 8 18 11 10 2 -7 -1 -18 -6 -23z m2604 -16 c-3 -5 4
-19 15 -30 15 -17 16 -22 5 -22 -8 0 -18 -6 -22 -12 -4 -7 -4 -10 1 -6 10 10
45 -10 45 -25 0 -8 -4 -7 -10 3 -13 21 -19 9 -9 -19 8 -20 11 -22 27 -10 15
13 16 12 3 -3 -7 -10 -17 -15 -22 -12 -5 3 -9 0 -9 -5 0 -6 3 -11 8 -11 4 0 7
-15 8 -32 0 -18 4 -42 9 -53 7 -16 6 -18 -6 -7 -7 6 -18 12 -23 12 -6 0 2 -9
17 -19 32 -21 27 -29 -16 -26 -15 1 -25 -1 -21 -4 3 -3 14 -7 25 -7 10 -1 23
-2 28 -3 15 -2 6 -30 -15 -47 -10 -8 -13 -13 -7 -9 23 11 38 -9 39 -52 0 -24
-4 -43 -8 -43 -5 0 -6 -5 -3 -10 4 -6 11 -7 17 -4 7 4 7 0 0 -12 -5 -11 -9
-31 -8 -46 1 -16 -1 -29 -4 -29 -39 -10 -49 -4 -86 54 -38 60 -58 127 -33 111
8 -4 10 -3 5 5 -4 6 -2 19 6 28 9 12 9 15 1 9 -8 -4 -13 -2 -13 8 0 8 -7 22
-16 30 -8 9 -13 20 -9 26 3 5 0 7 -9 4 -9 -3 -17 3 -21 16 -5 17 -10 19 -21 9
-10 -8 -14 -8 -14 0 0 6 -5 11 -11 11 -5 0 -8 -4 -5 -9 3 -5 -1 -12 -10 -15
-21 -8 -54 2 -54 15 0 6 -3 8 -7 6 -5 -3 -14 1 -20 8 -17 18 9 45 37 40 11 -2
18 0 15 4 -7 12 21 22 40 15 12 -5 14 7 11 75 -2 57 0 79 8 71 13 -13 73 -13
82 1 3 6 15 9 25 6 11 -3 17 -1 14 3 -3 5 1 11 7 13 19 8 20 8 14 -1z m-2570
-37 c1 -9 1 -15 -1 -13 -2 1 -3 6 -2 10 1 4 -7 14 -18 23 -18 15 -19 16 -1 7
11 -5 21 -17 22 -27z m2644 -21 c0 -8 -19 -13 -24 -6 -3 5 1 9 9 9 8 0 15 -2
15 -3z m-2643 -29 c0 -8 -4 -12 -9 -9 -5 3 -15 2 -21 -3 -7 -4 -4 0 6 10 23
21 24 21 24 2z m-2 -75 c3 -5 1 -10 -4 -10 -6 0 -11 5 -11 10 0 6 2 10 4 10 3
0 8 -4 11 -10z m2280 -29 c3 -5 2 -12 -3 -15 -5 -3 -9 1 -9 9 0 17 3 19 12 6z
m383 -16 c-3 -3 -9 2 -12 12 -6 14 -5 15 5 6 7 -7 10 -15 7 -18z m-408 -11 c0
-8 -19 -13 -24 -6 -3 5 1 9 9 9 8 0 15 -2 15 -3z m-2254 -31 c-2 -9 -8 -18
-15 -19 -6 -1 -7 0 -2 2 6 3 7 12 4 20 -3 8 -1 14 5 14 6 0 9 -8 8 -17z m2264
-33 c0 -5 -2 -10 -4 -10 -3 0 -8 5 -11 10 -3 6 -1 10 4 10 6 0 11 -4 11 -10z
m-2255 -40 c3 -6 -1 -7 -9 -4 -18 7 -21 14 -7 14 6 0 13 -4 16 -10z m-5 -32
c10 -21 10 -21 -3 -6 -8 10 -18 14 -22 10 -5 -4 -5 -1 -1 6 10 17 14 15 26
-10z m-1 -37 c8 -14 7 -20 -2 -24 -7 -3 -12 5 -12 19 0 29 1 29 14 5z m2289
-46 c-3 -3 -9 2 -12 12 -6 14 -5 15 5 6 7 -7 10 -15 7 -18z m-2293 -13 c-3 -3
-11 0 -18 7 -9 10 -8 11 6 5 10 -3 15 -9 12 -12z m13 -22 c-7 -10 -14 -17 -17
-15 -4 4 18 35 25 35 2 0 -1 -9 -8 -20z m-30 -15 c-3 -3 -9 2 -12 12 -6 14 -5
15 5 6 7 -7 10 -15 7 -18z m39 -12 c-4 -3 -2 -12 5 -20 8 -11 7 -12 -6 -7 -9
3 -16 9 -16 13 0 9 11 21 18 21 3 0 2 -3 -1 -7z m2678 -3 c3 -5 1 -10 -4 -10
-6 0 -11 5 -11 10 0 6 2 10 4 10 3 0 8 -4 11 -10z m-398 -25 c0 -8 -4 -12 -9
-9 -4 3 -8 9 -8 15 0 5 4 9 8 9 5 0 9 -7 9 -15z m-2280 -65 c1 -11 -2 -20 -5
-20 -4 0 -8 9 -9 20 -1 11 2 20 5 20 4 0 8 -9 9 -20z m2290 14 c-3 -3 -12 -4
-19 -1 -8 3 -5 6 6 6 11 1 17 -2 13 -5z m-7 -24 c0 -5 -5 -10 -11 -10 -5 0 -7
5 -4 10 3 6 8 10 11 10 2 0 4 -4 4 -10z m55 0 c3 -5 1 -10 -4 -10 -6 0 -11 5
-11 10 0 6 2 10 4 10 3 0 8 -4 11 -10z m-42 -53 c4 3 7 4 7 0 0 -18 -21 -14
-30 5 -10 21 -10 21 3 6 8 -10 17 -15 20 -11z m-2313 -1 c0 -3 -4 -8 -10 -11
-5 -3 -10 -1 -10 4 0 6 5 11 10 11 6 0 10 -2 10 -4z m13 -21 c-3 -9 -8 -14
-10 -11 -3 3 -2 9 2 15 9 16 15 13 8 -4z m31 -3 c3 -5 -1 -9 -9 -9 -8 0 -12 4
-9 9 3 4 7 8 9 8 2 0 6 -4 9 -8z m333 -8 c-3 -3 -12 -4 -19 -1 -8 3 -5 6 6 6
11 1 17 -2 13 -5z m-1 -40 c1 -9 0 -13 -4 -10 -3 4 -7 14 -8 22 -1 9 0 13 4
10 3 -4 7 -14 8 -22z m-361 -16 c-9 -6 -19 -7 -22 -4 -4 3 -1 6 6 6 7 0 9 4 6
10 -4 6 1 7 11 3 15 -6 15 -7 -1 -15z m343 -13 c-3 -3 -9 2 -12 12 -6 14 -5
15 5 6 7 -7 10 -15 7 -18z m-108 5 c0 -5 -5 -10 -11 -10 -5 0 -7 5 -4 10 3 6
8 10 11 10 2 0 4 -4 4 -10z m2052 -15 c-8 -16 -9 -16 -15 -1 -4 10 -3 15 3 11
6 -3 10 -1 10 6 0 7 3 10 6 6 3 -3 2 -13 -4 -22z m-2165 -47 c4 -3 2 -3 -4 -2
-7 2 -13 -1 -13 -6 0 -6 -5 -10 -11 -10 -8 0 -8 4 0 14 9 10 8 15 -3 19 -9 4
-18 1 -22 -5 -5 -7 -2 -8 6 -3 9 5 11 4 6 -4 -4 -6 -12 -8 -18 -5 -6 4 -8 -1
-3 -15 3 -11 2 -21 -3 -21 -6 0 -9 14 -8 30 1 17 -2 30 -7 30 -5 0 1 9 14 19
23 19 24 19 40 -9 10 -15 21 -30 26 -32z m-117 32 c6 -11 8 -20 6 -20 -3 0
-10 9 -16 20 -6 11 -8 20 -6 20 3 0 10 -9 16 -20z m-27 -15 c-3 -9 -8 -14 -10
-11 -3 3 -2 9 2 15 9 16 15 13 8 -4z m314 9 c-3 -3 -2 -17 4 -31 6 -16 6 -22
-1 -18 -6 3 -10 1 -10 -4 0 -6 5 -11 11 -11 6 0 8 -8 4 -19 -7 -23 12 -38 28
-22 9 9 8 11 -5 6 -19 -8 -23 2 -9 23 7 11 9 10 15 -3 3 -9 10 -14 15 -11 10
7 9 -20 -2 -30 -15 -15 -6 -26 11 -13 15 12 15 12 5 -1 -6 -8 -13 -19 -15 -25
-4 -13 -26 -16 -34 -4 -3 5 -9 7 -14 4 -4 -3 -14 2 -21 11 -10 13 -10 17 0 24
8 4 9 10 3 14 -19 11 -23 -27 -5 -47 13 -14 13 -18 3 -12 -13 8 -13 7 0 -10
13 -17 13 -18 0 -10 -8 6 -22 10 -31 10 -9 0 -24 7 -35 15 -18 14 -18 14 -2
-6 14 -16 15 -23 5 -34 -8 -8 -8 -11 0 -6 13 7 12 -11 -2 -34 -8 -13 -7 -13
10 0 15 12 17 12 10 1 -6 -10 -4 -12 5 -6 9 6 11 4 5 -5 -6 -9 -4 -11 5 -5 9
6 11 4 5 -5 -5 -9 -4 -11 3 -6 7 4 12 2 12 -3 0 -6 5 -11 10 -11 6 0 10 7 10
16 0 8 -4 13 -9 10 -4 -3 -16 3 -25 13 -18 20 -10 33 23 38 8 1 17 5 20 10 3
4 11 9 16 10 65 10 72 16 69 63 -2 38 19 52 31 21 4 -9 9 -11 13 -6 4 6 28 0
60 -16 50 -25 52 -27 27 -33 -14 -4 -30 -4 -36 -1 -5 4 -8 1 -7 -7 2 -7 -2
-12 -9 -11 -6 1 -10 -5 -8 -15 1 -9 -2 -25 -7 -36 -7 -13 -7 -16 1 -12 6 4 11
2 11 -3 0 -6 -4 -11 -9 -11 -5 0 -18 -3 -28 -7 -14 -5 -16 -4 -8 8 6 9 4 9 -5
-1 -9 -9 -23 -16 -31 -15 -11 2 -16 -4 -15 -19 1 -11 7 -20 14 -19 7 2 12 -2
12 -8 0 -5 5 -7 10 -4 6 3 13 -1 16 -10 6 -13 8 -14 15 -3 7 10 9 11 9 0 0 -7
4 -11 9 -7 5 3 12 1 16 -5 4 -6 10 -8 15 -5 5 3 12 0 16 -7 4 -7 4 -10 -1 -6
-4 4 -14 3 -22 -4 -7 -6 -16 -8 -20 -4 -3 3 -1 6 6 6 7 0 9 5 6 10 -4 6 -12 7
-18 3 -6 -4 -23 -8 -37 -9 -14 -1 -19 0 -12 3 6 2 12 12 12 21 0 15 -2 15 -10
2 -9 -13 -10 -13 -10 0 0 13 -1 13 -10 0 -8 -13 -10 -12 -10 4 0 11 -3 17 -6
13 -3 -3 -20 3 -38 13 -22 12 -38 15 -48 9 -12 -6 -20 -2 -32 16 -11 16 -22
22 -33 18 -13 -5 -15 -2 -10 11 5 13 3 17 -7 13 -20 -8 -27 3 -16 23 7 13 5
22 -8 31 -16 13 -16 13 -2 -5 8 -11 10 -17 4 -13 -8 4 -10 -4 -8 -24 3 -21 0
-29 -8 -27 -7 3 -13 18 -13 34 0 17 -6 28 -13 26 -7 -1 -15 5 -18 13 -4 8 -10
15 -16 15 -5 0 -6 -5 -2 -12 5 -7 3 -8 -7 -2 -8 5 -18 9 -24 9 -12 0 -25 84
-14 91 4 2 15 1 25 -3 13 -5 16 -3 12 9 -5 11 0 14 18 12 13 -1 24 3 24 9 0 8
3 7 9 -1 7 -11 9 -11 14 1 6 16 23 17 46 3 11 -7 13 -5 8 7 -3 10 -2 17 4 17
6 0 7 6 3 13 -5 9 -4 9 6 0 10 -9 17 -9 26 -2 7 6 18 8 24 4 17 -10 3 -23 -24
-20 -26 3 -29 -12 -7 -39 9 -11 10 -16 2 -16 -6 0 -11 5 -11 11 0 5 -4 8 -9 4
-5 -3 -12 -1 -16 5 -4 6 -11 8 -16 4 -6 -4 -6 -11 1 -19 7 -8 7 -16 2 -19 -12
-7 -25 22 -17 35 4 5 -1 6 -9 3 -8 -3 -13 -16 -11 -30 1 -15 -3 -24 -12 -24
-8 0 -11 -5 -8 -10 5 -8 11 -8 19 -1 7 6 17 7 21 3 5 -4 4 0 0 8 -8 13 -7 13
8 1 9 -7 17 -10 17 -5 0 5 6 2 13 -6 14 -18 37 -24 37 -10 0 6 -6 10 -14 10
-8 0 -18 5 -22 11 -4 8 1 9 17 4 19 -5 21 -4 9 5 -12 9 -10 10 9 5 18 -6 23
-4 19 7 -3 8 0 22 7 32 7 10 11 28 9 42 -3 14 0 24 7 24 7 0 10 -3 6 -6z
m-102 -14 c-3 -5 -12 -10 -18 -10 -7 0 -6 4 3 10 19 12 23 12 15 0z m-189 -26
c-3 -8 1 -28 9 -44 14 -26 14 -29 0 -24 -8 3 -12 10 -9 15 3 5 1 9 -4 9 -4 0
-8 14 -8 30 0 17 4 30 9 30 5 0 6 -7 3 -16z m361 10 c-3 -3 -12 -4 -19 -1 -8
3 -5 6 6 6 11 1 17 -2 13 -5z m-402 -14 c-4 -6 -1 -19 7 -28 11 -15 11 -15 -2
-5 -8 6 -19 11 -25 11 -18 1 -16 20 2 25 10 3 19 5 21 6 2 0 0 -4 -3 -9z m304
-13 c-8 -14 -13 -16 -25 -7 -17 15 -12 26 14 26 17 0 19 -4 11 -19z m2036 4
c3 -5 2 -12 -3 -15 -5 -3 -9 1 -9 9 0 17 3 19 12 6z m-2078 -36 c1 0 -8 -7
-20 -14 -19 -13 -20 -12 -10 1 10 11 10 17 0 28 -10 11 -8 11 8 0 11 -8 21
-15 22 -15z m1239 6 c-3 -4 0 -25 6 -47 16 -55 16 -57 -5 -78 -17 -17 -20 -17
-35 -2 -9 9 -11 16 -5 16 6 0 9 14 8 31 -2 24 1 29 13 24 11 -4 12 -2 5 7 -5
7 -8 19 -7 26 1 6 2 19 3 28 0 8 6 12 11 9 6 -4 8 -10 6 -14z m-1441 -50 c3
-6 -3 -9 -14 -8 -11 0 -17 5 -15 9 7 11 22 10 29 -1z m289 -39 c3 -5 -1 -9 -9
-9 -8 0 -12 4 -9 9 3 4 7 8 9 8 2 0 6 -4 9 -8z m-42 -23 c2 -2 1 -3 -1 -1 -2
1 -12 -5 -22 -14 -16 -14 -17 -14 -14 3 2 10 4 19 4 20 2 3 31 -3 33 -8z
m-131 -78 c7 11 9 11 9 1 0 -7 5 -10 10 -7 12 7 14 -16 3 -31 -5 -5 0 -1 10 9
9 11 17 14 17 8 0 -7 5 -9 10 -6 13 8 13 -16 -1 -35 -8 -13 -9 -13 -7 2 2 9
-1 17 -7 17 -5 1 -10 -7 -10 -17 0 -9 -6 -16 -12 -14 -18 3 -16 -15 1 -21 14
-6 34 12 54 48 7 11 12 14 12 6 0 -7 6 -11 15 -8 23 9 26 -8 5 -30 -10 -12
-16 -24 -12 -27 3 -4 7 -14 8 -22 2 -11 -3 -14 -16 -11 -11 3 -21 0 -23 -7 -3
-8 -9 -7 -20 3 -9 7 -14 17 -11 22 3 5 -2 9 -10 9 -8 0 -18 9 -21 20 -4 11
-10 18 -14 16 -4 -3 -7 11 -6 30 1 18 -2 34 -7 34 -5 0 -6 5 -2 12 6 9 9 9 12
-1 4 -11 6 -11 13 0z m2138 -19 c-1 -15 -2 -15 -6 1 -2 9 -9 14 -15 11 -7 -4
-8 -2 -4 5 10 15 26 4 25 -17z m-1351 -9 c13 -3 22 -13 22 -25 0 -10 7 -30 16
-43 25 -38 3 -30 -34 13 -18 20 -40 46 -50 56 -16 18 -16 19 3 11 11 -4 30
-10 43 -12z m1337 -21 c-3 -3 -11 0 -18 7 -9 10 -8 11 6 5 10 -3 15 -9 12 -12z
m-1930 -10 c-3 -3 -11 0 -18 7 -9 10 -8 11 6 5 10 -3 15 -9 12 -12z m1215 -25
c0 -11 11 -28 25 -39 14 -11 23 -23 20 -27 -2 -5 5 -18 16 -29 11 -12 15 -22
10 -22 -6 0 -8 -8 -5 -17 5 -15 4 -16 -5 -3 -9 13 -11 13 -11 0 0 -13 -1 -13
-10 0 -5 8 -10 11 -10 7 0 -4 -9 -3 -20 3 -11 6 -18 15 -15 21 4 5 1 9 -5 9
-7 0 -10 7 -6 15 3 8 -2 18 -10 23 -13 7 -13 10 -1 20 11 9 14 8 15 -3 1 -8 3
-21 4 -28 1 -8 7 -14 14 -14 7 0 10 5 7 10 -4 6 -1 7 7 2 9 -5 11 -4 6 4 -4 6
-12 9 -17 6 -5 -4 -9 -2 -9 4 0 5 3 11 8 14 4 2 1 2 -6 0 -7 -1 -10 1 -7 6 9
16 -15 24 -30 11 -12 -10 -16 -8 -24 11 -10 27 -2 35 34 35 18 0 25 -5 25 -19z
m700 -57 c0 -5 -5 -10 -11 -10 -5 0 -7 5 -4 10 3 6 8 10 11 10 2 0 4 -4 4 -10z
m-7 -67 c-3 -7 -6 -13 -8 -13 -2 0 -5 6 -8 13 -3 8 1 14 8 14 7 0 11 -6 8 -14z
m-1113 -63 c0 -5 -2 -10 -4 -10 -3 0 -8 5 -11 10 -3 6 -1 10 4 10 6 0 11 -4
11 -10z m585 -104 c-16 -15 -22 -27 -15 -31 6 -3 8 -11 4 -16 -4 -6 -15 -3
-28 9 -15 14 -27 17 -41 12 -29 -12 -32 -12 -32 8 0 28 17 44 33 31 11 -9 14
-8 14 7 0 15 3 14 26 -7 18 -17 23 -19 18 -6 -6 16 4 22 29 18 4 0 7 5 8 12 0
9 2 9 6 0 2 -7 -7 -23 -22 -37z m480 34 c-3 -5 -12 -10 -18 -10 -7 0 -6 4 3
10 19 12 23 12 15 0z m-145 -165 c0 -2 -9 -9 -20 -15 -12 -6 -20 -7 -20 -1 0
5 8 12 18 14 9 3 18 5 20 6 1 0 2 -1 2 -4z m-2007 -29 c-10 -12 -18 -22 -19
-24 -1 -1 -4 6 -7 17 -3 15 -1 18 11 14 9 -4 13 -2 9 4 -3 5 0 10 8 10 12 0
12 -4 -2 -21z m2101 15 c4 -5 -3 -7 -14 -4 -23 6 -26 13 -6 13 8 0 17 -4 20
-9z m-2094 -61 c0 -5 -2 -10 -4 -10 -3 0 -8 5 -11 10 -3 6 -1 10 4 10 6 0 11
-4 11 -10z m2055 0 c3 -5 1 -10 -4 -10 -6 0 -11 5 -11 10 0 6 2 10 4 10 3 0 8
-4 11 -10z m-1059 -74 c-3 -15 3 -32 15 -45 11 -12 17 -21 13 -21 -4 0 3 -9
16 -20 17 -15 27 -17 41 -9 13 6 19 6 19 0 0 -6 -11 -13 -25 -17 -14 -3 -25
-9 -25 -13 0 -4 -12 -13 -27 -20 -25 -10 -26 -10 -10 3 15 12 16 15 2 26 -11
9 -12 16 -5 25 8 9 6 14 -5 18 -9 4 -12 13 -8 23 4 10 2 15 -3 11 -6 -3 -10 9
-10 29 0 19 4 34 8 34 5 0 6 -11 4 -24z m474 -71 c8 0 22 5 30 10 13 8 13 7 1
-8 -7 -9 -17 -14 -23 -11 -5 3 -15 0 -23 -6 -12 -10 -15 -8 -15 11 0 13 4 20
8 14 4 -5 14 -10 22 -10z m-288 -5 c6 0 8 -3 4 -7 -4 -5 -17 -8 -29 -8 -12 -1
-28 -4 -34 -8 -18 -11 -16 -1 3 18 9 9 23 14 31 11 8 -3 20 -6 25 -6z m-1200
-47 c-6 -2 -9 -10 -6 -15 4 -7 2 -8 -5 -4 -13 9 -5 26 12 25 9 0 8 -2 -1 -6z
m32 -19 c3 -8 2 -12 -4 -9 -6 3 -10 10 -10 16 0 14 7 11 14 -7z m1210 -20 c3
-8 2 -12 -4 -9 -6 3 -10 10 -10 16 0 14 7 11 14 -7z m-1224 -9 c0 -8 -4 -15
-8 -15 -5 0 -9 7 -9 15 0 8 4 15 9 15 4 0 8 -7 8 -15z m459 -45 c0 -8 -6 0
-14 19 -8 18 -15 36 -15 40 1 13 29 -45 29 -59z m795 34 c3 -8 2 -12 -4 -9 -6
3 -10 10 -10 16 0 14 7 11 14 -7z m-36 -12 c2 -7 8 -10 13 -7 5 4 6 -2 2 -11
-4 -11 -8 -13 -11 -6 -2 7 -8 10 -13 7 -5 -4 -6 2 -2 11 4 10 2 15 -3 11 -6
-3 -16 -1 -24 4 -11 7 -9 8 9 6 14 -2 27 -9 29 -15z m-1224 -17 c11 -8 16 -15
10 -15 -5 0 -18 7 -28 15 -11 8 -16 15 -10 15 5 0 18 -7 28 -15z m1143 -7 c-3
-8 -6 -5 -6 6 -1 11 2 17 5 13 3 -3 4 -12 1 -19z m43 18 c0 -2 -7 -7 -16 -10
-8 -3 -12 -2 -9 4 6 10 25 14 25 6z m-280 -15 c1 9 5 8 15 -5 13 -17 19 -15
17 5 -2 12 63 3 68 -9 3 -8 10 -13 14 -12 5 1 13 -4 18 -12 8 -10 9 -10 5 2
-2 8 -10 14 -16 13 -6 -2 -11 2 -11 7 0 6 6 10 13 10 14 0 47 -20 33 -20 -5 0
-3 -7 4 -15 11 -13 10 -14 -5 -9 -12 5 -16 4 -11 -4 7 -11 -31 -38 -41 -29 -2
3 -13 -2 -24 -11 -18 -16 -18 -17 3 -39 12 -13 18 -23 14 -23 -3 0 0 -13 9
-30 17 -32 20 -54 5 -30 -8 12 -10 12 -10 1 0 -11 -3 -11 -15 -1 -9 7 -14 18
-12 24 2 6 -2 17 -10 24 -7 8 -11 17 -8 22 3 4 -2 11 -11 14 -9 3 -14 12 -11
19 2 6 -5 24 -15 40 -11 15 -16 27 -12 27 4 0 -3 12 -17 27 -13 15 -16 21 -6
14 14 -11 17 -11 17 0z m-447 -38 c33 -78 97 -240 97 -246 0 -4 -6 -7 -14 -7
-8 0 -44 -13 -79 -30 -36 -16 -68 -30 -71 -30 -3 0 -6 19 -6 43 1 23 1 50 0
60 0 37 4 46 31 57 29 13 52 53 46 85 -1 11 -10 35 -20 54 -19 38 -21 51 -9
51 5 0 16 -17 25 -37z m757 20 c0 -3 -9 -3 -19 0 -12 3 -22 -1 -25 -10 -3 -8
-10 -12 -15 -9 -5 4 -12 1 -14 -4 -4 -7 -5 -6 -3 0 1 7 5 10 9 8 5 -2 13 4 18
14 8 14 49 15 49 1z m50 13 c0 -3 -4 -8 -10 -11 -5 -3 -10 -1 -10 4 0 6 5 11
10 11 6 0 10 -2 10 -4z m102 -3 c-10 -4 -10 -8 0 -21 12 -15 11 -16 -4 -3 -19
14 -15 32 5 30 8 0 8 -2 -1 -6z m-1364 -33 c-7 -10 -14 -17 -17 -15 -4 4 18
35 25 35 2 0 -1 -9 -8 -20z m1279 -9 c-1 -12 -6 -17 -16 -13 -9 3 -12 1 -7 -6
4 -7 2 -12 -3 -12 -16 0 -13 11 7 31 22 23 21 23 19 0z m-762 -21 c3 -6 1 -10
-6 -10 -7 0 -10 -3 -7 -6 3 -3 22 1 41 10 19 8 38 12 41 8 3 -3 6 -1 6 5 0 22
43 22 63 0 15 -17 16 -23 5 -25 -18 -3 -42 -68 -32 -84 5 -8 2 -9 -11 -4 -13
5 -10 -1 9 -19 27 -25 27 -51 -1 -41 -8 3 -12 2 -9 -3 3 -5 -8 -14 -24 -20
-30 -10 -33 -6 -29 26 0 3 -6 10 -15 15 -9 5 -14 13 -11 18 3 5 1 11 -5 15 -5
3 -10 15 -10 26 0 10 -6 19 -12 19 -9 0 -8 4 2 10 13 9 13 10 0 10 -13 0 -13
1 0 10 13 8 12 10 -2 10 -10 0 -19 5 -19 10 -3 20 -4 25 -13 38 -7 11 -4 12
12 3 12 -6 24 -16 27 -21z m595 10 c-6 -11 -14 -20 -19 -20 -4 0 -7 -13 -7
-30 0 -16 4 -30 9 -30 5 0 3 -8 -4 -17 -12 -15 -12 -16 4 -10 11 4 16 3 12 -3
-3 -6 -2 -10 4 -10 6 0 7 -7 4 -17 -5 -12 -3 -14 7 -8 8 5 11 4 6 -3 -3 -6 1
-18 10 -26 8 -9 10 -16 4 -16 -6 0 -13 7 -16 15 -5 12 -9 13 -21 4 -11 -10
-17 -9 -29 4 -8 9 -9 12 -2 7 20 -16 32 -11 17 7 -10 11 -10 14 -1 9 7 -4 12
-1 12 8 0 18 -11 21 -26 6 -6 -6 -15 -5 -24 1 -13 9 -13 10 2 6 24 -8 30 4 10
19 -13 11 -14 15 -4 22 9 6 7 13 -9 28 -22 19 -22 19 -15 -6 6 -22 5 -22 -4
-7 -11 17 -7 32 8 32 14 1 57 28 65 41 13 22 19 16 7 -6z m-1109 -17 c-12 -20
-14 -14 -5 12 4 9 9 14 11 11 3 -2 0 -13 -6 -23z m1389 5 c0 -6 -6 -5 -15 2
-8 7 -15 14 -15 16 0 2 7 1 15 -2 8 -4 15 -11 15 -16z m-170 1 c0 -5 -4 -7
-10 -4 -5 3 -10 1 -10 -6 0 -7 -3 -10 -6 -6 -8 7 4 27 17 27 5 0 9 -5 9 -11z
m60 -19 c-14 -11 -33 -17 -44 -14 -12 4 -16 2 -12 -5 5 -7 1 -8 -9 -4 -13 5
-14 7 -3 14 7 5 20 6 29 4 8 -3 24 3 35 14 10 10 21 16 24 14 3 -2 -6 -13 -20
-23z m-122 -25 c-3 -3 -9 2 -12 12 -6 14 -5 15 5 6 7 -7 10 -15 7 -18z m240 0
c-3 -3 -9 2 -12 12 -6 14 -5 15 5 6 7 -7 10 -15 7 -18z m-1378 10 c0 -7 -30
-13 -34 -7 -3 4 4 9 15 9 10 1 19 0 19 -2z m1170 1 c0 -3 -4 -8 -10 -11 -5 -3
-10 -1 -10 4 0 6 5 11 10 11 6 0 10 -2 10 -4z m-1170 -26 c0 -5 -5 -10 -11
-10 -5 0 -7 5 -4 10 3 6 8 10 11 10 2 0 4 -4 4 -10z m-363 -24 c-4 -10 -1 -13
9 -9 7 3 14 0 14 -6 0 -6 -9 -11 -19 -11 -14 0 -19 6 -18 20 1 11 5 20 10 20
5 0 7 -7 4 -14z m338 4 c3 -5 1 -10 -4 -10 -6 0 -11 5 -11 10 0 6 2 10 4 10 3
0 8 -4 11 -10z m1509 -2 c-3 -4 1 -8 8 -9 10 0 10 -2 0 -6 -8 -3 -6 -10 9 -22
l22 -17 -27 -27 c-14 -14 -26 -23 -26 -19 0 5 5 13 12 20 17 17 18 40 1 46
-11 5 -13 1 -8 -15 5 -15 4 -19 -4 -15 -15 9 -14 46 1 46 15 0 0 15 -15 15 -7
1 -15 -3 -18 -8 -3 -5 -9 -3 -11 5 -4 10 3 14 27 14 19 0 31 -4 29 -8z m-1491
-28 c-3 -12 -8 -19 -11 -16 -5 6 5 36 12 36 2 0 2 -9 -1 -20z m-4 -33 c-2 -1
-13 -9 -24 -17 -19 -14 -19 -14 -6 3 7 9 18 17 24 17 6 0 8 -1 6 -3z m1538
-23 c-3 -4 0 -13 8 -20 8 -8 12 -21 9 -29 -4 -8 -2 -15 4 -15 5 0 18 -19 28
-42 10 -24 20 -47 22 -51 2 -5 -8 3 -22 18 -15 15 -23 32 -19 41 3 9 0 14 -8
12 -8 -2 -13 3 -11 10 1 6 -2 12 -8 12 -5 0 -10 -6 -10 -14 0 -8 -5 -18 -11
-21 -18 -12 -5 29 14 43 9 7 15 18 11 23 -3 6 -11 3 -18 -7 -10 -14 -16 -15
-32 -5 -18 11 -17 12 4 6 13 -4 22 -2 22 4 0 6 -6 11 -12 11 -8 0 -5 7 6 15
20 15 35 21 23 9z m-394 -43 c19 -18 19 -21 4 -21 -9 0 -17 -5 -17 -11 0 -5 4
-8 9 -5 10 6 31 -16 35 -36 1 -7 7 -23 14 -34 6 -12 8 -24 5 -28 -3 -3 -1 -6
6 -6 16 0 5 -17 -20 -30 -13 -7 -19 -7 -19 0 0 5 7 10 15 10 8 0 15 4 15 8 0
12 -48 52 -63 53 -9 0 -9 2 1 6 7 3 22 -3 33 -13 10 -9 19 -12 19 -6 0 17 -40
41 -58 35 -10 -5 -13 -2 -8 6 5 7 14 10 22 7 7 -3 16 0 20 6 4 6 3 8 -3 5 -14
-9 -37 19 -28 34 5 8 1 9 -14 4 -13 -4 -21 -2 -21 5 0 6 5 8 10 5 6 -3 10 1
10 9 0 18 -11 21 -26 6 -7 -7 -11 -6 -11 4 0 21 45 13 70 -13z m-1133 9 c0 -5
-2 -10 -4 -10 -3 0 -8 5 -11 10 -3 6 -1 10 4 10 6 0 11 -4 11 -10z m1 -62
c-10 -11 -11 -9 -5 6 6 15 4 17 -6 11 -9 -6 -11 -4 -5 4 5 9 10 10 18 2 8 -8
7 -14 -2 -23z m284 -14 c0 -13 -6 -18 -20 -16 -16 2 -17 1 -5 -7 8 -5 18 -7
22 -5 4 3 8 0 8 -5 0 -6 -6 -11 -13 -11 -19 0 -67 -24 -67 -33 0 -5 -4 -6 -9
-2 -5 3 -26 -5 -47 -17 l-37 -22 -18 23 c-11 13 -16 27 -13 32 3 5 1 9 -4 9
-6 0 -13 7 -16 16 -3 8 -2 12 4 9 6 -3 10 -2 10 2 0 15 73 38 78 24 5 -16 31
-13 72 8 42 22 55 21 55 -5z m-311 -5 c-2 -4 2 -10 8 -12 8 -4 9 -6 2 -6 -6
-1 -17 5 -23 12 -8 10 -7 14 4 14 8 0 12 -4 9 -8z m1566 1 c0 -5 -4 -10 -10
-10 -5 0 -10 5 -10 10 0 6 5 10 10 10 6 0 10 -4 10 -10z m28 -33 c5 -7 4 -22
-4 -37 -10 -18 -14 -20 -14 -8 0 9 5 20 10 23 12 7 4 25 -11 25 -6 0 -7 -4 -4
-10 3 -5 2 -10 -3 -10 -6 0 -12 6 -15 13 -6 16 29 20 41 4z m-1575 -14 c-3 -7
-6 -13 -8 -13 -2 0 -5 6 -8 13 -3 8 1 14 8 14 7 0 11 -6 8 -14z m1162 -23 c4
-6 -1 -7 -11 -3 -13 5 -15 3 -9 -7 5 -9 4 -11 -4 -6 -6 4 -9 12 -6 17 8 12 22
12 30 -1z m451 -8 c-3 -3 2 -11 12 -18 14 -11 14 -13 2 -14 -13 -1 -13 -2 0
-13 14 -11 18 -21 23 -52 1 -5 7 -14 12 -18 6 -5 4 -7 -5 -4 -8 2 -16 9 -16
15 -1 7 -2 17 -3 22 -1 7 -8 7 -22 -1 -15 -8 -19 -8 -15 0 4 6 1 11 -6 11 -8
1 -7 5 5 14 12 9 14 16 7 21 -5 3 -8 10 -6 14 3 4 1 13 -5 21 -7 12 -9 11 -10
-5 -1 -11 -1 -26 0 -34 2 -11 0 -11 -12 0 -8 8 -12 16 -8 19 4 3 10 13 14 22
4 11 12 15 22 12 9 -4 13 -9 11 -12z m-1611 -2 c3 -5 1 -10 -4 -10 -6 0 -11 5
-11 10 0 6 2 10 4 10 3 0 8 -4 11 -10z m1211 -18 c-3 -5 2 -20 12 -33 16 -23
22 -39 24 -66 1 -7 7 -14 14 -17 8 -3 11 -12 8 -21 -3 -8 -1 -15 5 -15 6 0 11
-8 11 -18 0 -10 6 -24 12 -30 10 -10 10 -15 -2 -22 -14 -9 -7 -14 13 -11 5 1
6 -3 2 -9 -3 -5 -1 -10 5 -10 7 0 9 -8 5 -21 -5 -14 -3 -19 3 -15 6 4 16 -3
22 -14 6 -11 8 -20 5 -20 -3 0 0 -10 7 -22 7 -13 11 -29 10 -35 -2 -7 3 -13 9
-13 7 0 9 -3 6 -7 -4 -3 -2 -12 4 -20 6 -7 8 -13 5 -13 -4 0 0 -7 8 -16 9 -8
14 -20 11 -25 -4 -5 -1 -9 6 -9 7 0 4 -7 -7 -15 -18 -15 -18 -15 0 -13 10 2
21 -3 23 -10 3 -8 -1 -10 -14 -5 -16 6 -16 5 -5 -10 8 -8 21 -13 30 -10 14 4
14 3 3 -5 -8 -6 -20 -8 -27 -5 -13 5 -30 41 -26 56 1 4 -2 7 -8 7 -5 0 -10 -5
-10 -12 0 -6 -3 -8 -6 -5 -4 4 -1 13 6 22 14 17 1 21 -18 5 -6 -6 -10 -7 -7
-4 3 4 -1 14 -8 22 -10 13 -9 14 3 7 8 -5 25 -10 38 -11 23 -3 24 -2 6 17 -13
15 -19 16 -26 7 -4 -7 -8 -8 -9 -3 -1 6 -3 15 -4 20 -2 6 -3 16 -4 23 0 6 -4
11 -8 11 -17 -3 -24 2 -18 11 5 8 11 7 21 -1 8 -6 14 -7 14 -2 0 9 -35 43 -42
40 -2 -1 0 2 4 8 16 18 8 28 -10 12 -17 -16 -19 -16 -19 0 0 10 4 24 10 31 5
7 6 16 2 20 -4 4 -10 1 -12 -5 -3 -7 -10 -13 -16 -13 -7 1 -2 9 10 19 12 10
19 21 16 25 -4 3 -14 -1 -23 -9 -14 -13 -17 -13 -17 -1 0 8 3 15 6 14 19 -2
24 4 12 11 -12 8 -12 12 -2 25 15 18 8 20 -19 6 -20 -11 -38 4 -19 16 8 4 7 9
-2 16 -11 8 -10 9 3 4 10 -3 20 -1 23 4 4 6 1 10 -6 10 -9 0 -8 4 1 15 10 12
6 14 -27 10 -35 -4 -36 -4 -15 8 12 7 20 16 16 20 -4 4 -13 2 -21 -5 -11 -8
-12 -7 -7 6 4 10 13 15 21 12 8 -4 13 -1 11 5 -2 6 -6 9 -10 7 -3 -2 -16 10
-28 25 -22 27 -22 29 -4 42 22 17 27 18 20 7z m-1212 -67 c-4 -8 -8 -15 -10
-15 -2 0 -4 7 -4 15 0 8 4 15 10 15 5 0 7 -7 4 -15z m1 -35 c3 -5 1 -10 -4
-10 -6 0 -11 5 -11 10 0 6 2 10 4 10 3 0 8 -4 11 -10z m20 -20 c-3 -5 -12 -10
-18 -10 -7 0 -6 4 3 10 19 12 23 12 15 0z m-44 -33 c-10 -9 -11 -8 -5 6 3 10
9 15 12 12 3 -3 0 -11 -7 -18z m1259 9 c0 -2 -7 -7 -16 -10 -8 -3 -12 -2 -9 4
6 10 25 14 25 6z m-1218 -28 c-7 -7 -12 -8 -12 -2 0 6 3 14 7 17 3 4 9 5 12 2
2 -3 -1 -11 -7 -17z m-7 -46 c-3 -3 -11 0 -18 7 -9 10 -8 11 6 5 10 -3 15 -9
12 -12z m-12 -15 c4 3 7 4 7 0 0 -18 -21 -14 -30 5 -10 21 -10 21 3 6 8 -10
17 -15 20 -11z m27 -21 c0 -2 -7 -7 -16 -10 -8 -3 -12 -2 -9 4 6 10 25 14 25
6z m-3 -41 c0 -8 -4 -12 -9 -9 -4 3 -8 9 -8 15 0 5 4 9 8 9 5 0 9 -7 9 -15z
m-36 -8 c-6 -8 -7 -18 -3 -22 4 -5 1 -5 -6 -1 -10 6 -10 11 -1 22 6 8 14 14
16 14 3 0 0 -6 -6 -13z m387 -45 c-9 -10 -8 -16 3 -23 8 -5 9 -9 3 -9 -6 0
-17 7 -24 15 -10 12 -10 15 1 15 11 0 11 2 -1 10 -12 7 -10 9 7 7 17 -1 20 -4
11 -15z m-353 -2 c3 -5 1 -10 -4 -10 -6 0 -11 5 -11 10 0 6 2 10 4 10 3 0 8
-4 11 -10z m329 -28 c2 -4 -4 -8 -14 -8 -10 0 -16 4 -14 8 3 4 9 8 14 8 5 0
11 -4 14 -8z m-324 -26 c0 -3 -4 -8 -10 -11 -5 -3 -10 -1 -10 4 0 6 5 11 10
11 6 0 10 -2 10 -4z m-3 -49 c1 -11 1 -18 0 -16 -2 2 -8 11 -15 20 -9 12 -9
16 1 16 7 0 14 -9 14 -20z m-24 -22 c-3 -9 -8 -14 -10 -11 -3 3 -2 9 2 15 9
16 15 13 8 -4z m24 -41 c-3 -3 -12 -4 -19 -1 -8 3 -5 6 6 6 11 1 17 -2 13 -5z
m-2 -15 c29 4 14 -7 -16 -12 -17 -4 -26 -1 -26 9 0 7 5 10 11 6 6 -3 20 -5 31
-3z m1380 -29 c3 -5 1 -10 -4 -10 -6 0 -11 5 -11 10 0 6 2 10 4 10 3 0 8 -4
11 -10z m50 -10 c-3 -5 -1 -10 5 -10 6 0 8 -5 4 -11 -4 -8 -9 -7 -15 2 -7 12
-3 29 7 29 3 0 2 -4 -1 -10z m420 -205 c9 -25 14 -52 11 -60 -3 -9 0 -12 10
-8 9 3 14 -2 14 -15 0 -12 5 -24 10 -27 6 -4 8 -11 5 -16 -4 -5 -2 -9 3 -9 11
0 33 -70 26 -82 -3 -4 2 -8 10 -8 9 0 15 -3 14 -7 -2 -10 8 -35 33 -91 10 -23
19 -49 19 -57 0 -8 5 -15 11 -15 8 0 7 -5 -1 -16 -8 -8 -9 -14 -4 -12 5 2 10
-1 12 -7 1 -5 -2 -10 -7 -10 -5 0 -13 -3 -16 -7 -4 -4 5 -5 21 -2 16 3 25 2
21 -2 -4 -4 -2 -13 4 -21 6 -7 8 -13 3 -13 -5 0 -2 -5 6 -10 13 -8 13 -12 1
-32 -13 -21 -13 -22 1 -10 14 11 17 8 27 -20 10 -30 9 -31 -4 -14 -8 11 -15
15 -15 10 0 -6 12 -21 27 -34 l27 -23 -23 -9 c-39 -14 -70 -17 -77 -7 -3 6
-17 15 -31 20 -17 6 -23 14 -19 26 5 13 4 13 -7 4 -11 -9 -17 -8 -26 2 -6 8
-7 18 -3 22 4 5 1 5 -5 1 -16 -9 -53 11 -53 29 0 7 -3 15 -7 17 -16 7 -48 83
-49 117 -2 49 -14 81 -29 81 -8 0 -16 9 -20 19 -6 21 -19 21 -68 2 -36 -14
-34 -15 -31 12 1 12 3 28 3 35 1 6 6 12 12 12 6 0 8 -7 5 -16 -5 -12 1 -11 29
6 19 12 40 18 46 14 7 -4 9 -3 6 3 -4 6 5 15 18 21 14 7 25 18 25 26 0 7 7 19
15 26 16 13 21 35 6 26 -5 -3 -11 5 -13 19 -3 16 -1 22 6 18 6 -3 1 4 -11 15
-17 17 -21 30 -17 59 3 21 9 40 14 41 6 2 8 8 4 13 -3 5 -1 9 4 9 5 0 17 -20
27 -45z m-285 -25 c0 -5 -2 -10 -4 -10 -3 0 -8 5 -11 10 -3 6 -1 10 4 10 6 0
11 -4 11 -10z m-85 -60 c3 -5 1 -10 -4 -10 -6 0 -11 5 -11 10 0 6 2 10 4 10 3
0 8 -4 11 -10z m-319 -392 c4 4 2 -2 -6 -12 -14 -18 -13 -18 9 -11 17 5 22 4
19 -6 -5 -15 -36 -21 -44 -8 -3 5 -7 22 -10 37 -4 24 -3 25 9 10 8 -10 18 -14
23 -10z"/>
<path d="M2660 7286 c0 -2 8 -10 18 -17 15 -13 16 -12 3 4 -13 16 -21 21 -21
13z"/>
<path d="M2814 7226 c1 -8 5 -18 8 -22 4 -3 5 1 4 10 -1 8 -5 18 -8 22 -4 3
-5 -1 -4 -10z"/>
<path d="M3454 6986 c1 -8 5 -18 8 -22 4 -3 5 1 4 10 -1 8 -5 18 -8 22 -4 3
-5 -1 -4 -10z"/>
<path d="M3427 6959 c7 -9 10 -19 6 -22 -3 -4 -1 -7 5 -7 17 0 15 16 -5 31
-16 12 -17 12 -6 -2z"/>
<path d="M3475 6820 c-3 -5 -1 -10 4 -10 6 0 11 5 11 10 0 6 -2 10 -4 10 -3 0
-8 -4 -11 -10z"/>
<path d="M3530 6802 c0 -19 30 -27 43 -12 9 10 9 12 -4 7 -9 -3 -22 0 -28 6
-8 8 -11 8 -11 -1z"/>
<path d="M3740 6706 c0 -2 8 -10 18 -17 15 -13 16 -12 3 4 -13 16 -21 21 -21
13z"/>
<path d="M4210 6680 c0 -5 5 -10 11 -10 5 0 7 5 4 10 -3 6 -8 10 -11 10 -2 0
-4 -4 -4 -10z"/>
<path d="M4260 6646 c0 -2 8 -10 18 -17 15 -13 16 -12 3 4 -13 16 -21 21 -21
13z"/>
<path d="M4230 6620 c0 -5 5 -10 11 -10 5 0 7 5 4 10 -3 6 -8 10 -11 10 -2 0
-4 -4 -4 -10z"/>
<path d="M4310 6602 c0 -5 7 -9 15 -9 8 0 12 4 9 9 -3 4 -9 8 -15 8 -5 0 -9
-4 -9 -8z"/>
<path d="M4319 6553 c-13 -16 -12 -17 4 -4 9 7 17 15 17 17 0 8 -8 3 -21 -13z"/>
<path d="M4387 6559 c7 -7 15 -10 18 -7 3 3 -2 9 -12 12 -14 6 -15 5 -6 -5z"/>
<path d="M4350 6540 c0 -5 5 -10 11 -10 5 0 7 5 4 10 -3 6 -8 10 -11 10 -2 0
-4 -4 -4 -10z"/>
<path d="M4273 6527 c0 -8 6 -14 14 -14 9 0 10 4 2 14 -6 7 -12 13 -14 13 -1
0 -2 -6 -2 -13z"/>
<path d="M4310 6526 c0 -2 7 -7 16 -10 8 -3 12 -2 9 4 -6 10 -25 14 -25 6z"/>
<path d="M4386 6522 c-3 -5 1 -9 9 -9 8 0 15 4 15 9 0 4 -4 8 -9 8 -6 0 -12
-4 -15 -8z"/>
<path d="M4353 6345 c0 -8 4 -12 9 -9 5 3 6 10 3 15 -9 13 -12 11 -12 -6z"/>
<path d="M2969 6463 c-13 -16 -12 -17 4 -4 9 7 17 15 17 17 0 8 -8 3 -21 -13z"/>
<path d="M2991 6447 c-8 -10 -7 -14 2 -14 8 0 14 6 14 14 0 7 -1 13 -2 13 -2
0 -8 -6 -14 -13z"/>
<path d="M3026 6442 c-3 -5 1 -9 9 -9 8 0 12 4 9 9 -3 4 -7 8 -9 8 -2 0 -6 -4
-9 -8z"/>
<path d="M2995 6402 c3 -3 -1 -12 -7 -21 -8 -10 -4 -9 10 3 26 23 26 23 7 23
-8 0 -13 -3 -10 -5z"/>
<path d="M3157 6388 c19 -21 31 -25 14 -5 -6 8 -9 16 -6 19 3 2 -2 5 -10 5
-13 0 -13 -3 2 -19z"/>
<path d="M3190 6396 c7 -7 13 -7 20 0 6 6 3 10 -10 10 -13 0 -16 -4 -10 -10z"/>
<path d="M3050 6396 c0 -2 8 -10 18 -17 15 -13 16 -12 3 4 -13 16 -21 21 -21
13z"/>
<path d="M3019 6373 c-13 -16 -12 -17 4 -4 16 13 21 21 13 21 -2 0 -10 -8 -17
-17z"/>
<path d="M3099 6373 c-12 -16 -12 -17 2 -6 9 7 20 9 24 5 5 -4 5 -1 1 6 -9 16
-11 15 -27 -5z"/>
<path d="M3135 6351 c-3 -6 -14 -8 -25 -6 -11 2 -22 0 -24 -4 -8 -13 43 -6 56
7 7 7 9 12 6 12 -4 0 -9 -4 -13 -9z"/>
<path d="M3209 6343 c-13 -16 -12 -17 4 -4 9 7 17 15 17 17 0 8 -8 3 -21 -13z"/>
<path d="M4218 5739 c17 -18 15 -28 -5 -24 -10 1 -30 -9 -45 -23 -15 -14 -38
-26 -50 -27 -27 -2 -30 -23 -6 -49 9 -10 14 -24 12 -31 -3 -7 -1 -16 5 -19 6
-4 8 -12 5 -20 -3 -7 6 -18 20 -24 22 -10 28 -8 49 18 14 16 28 26 32 22 5 -4
5 -2 1 5 -3 6 -2 14 4 18 5 3 10 0 10 -7 0 -9 3 -9 10 2 8 12 10 12 10 1 0
-11 5 -10 20 4 14 12 17 21 9 25 -6 4 -10 10 -10 14 2 16 0 18 -14 6 -21 -17
-19 -5 3 16 16 17 16 17 0 11 -10 -3 -20 -1 -24 5 -4 6 -3 8 2 5 6 -3 16 -2
22 2 10 6 9 11 -3 21 -13 11 -14 10 -9 -5 6 -15 5 -16 -15 -4 -11 8 -21 17
-21 22 0 4 4 6 9 2 5 -3 12 -1 15 4 3 5 -7 17 -22 26 -15 10 -21 12 -14 4z
m-5 -45 c-6 19 -6 19 13 0 11 -10 16 -20 12 -22 -4 -2 -8 -8 -8 -13 0 -6 5 -7
10 -4 10 6 14 -7 11 -32 -2 -15 11 -17 25 -3 6 6 10 3 11 -10 1 -16 -3 -19
-23 -16 -25 5 -35 -3 -68 -48 -15 -21 -22 -24 -38 -15 -11 6 -17 13 -14 16 3
4 1 12 -4 19 -6 6 -10 16 -8 20 1 5 -5 23 -14 40 -16 30 -16 31 5 29 12 -1 31
10 45 27 23 27 25 28 38 11 13 -17 14 -17 7 1z"/>
<path d="M4170 5676 c-6 -9 -9 -20 -5 -26 3 -5 4 -10 1 -10 -2 0 -12 -3 -22
-7 -13 -5 -15 -3 -9 7 5 9 4 11 -3 6 -9 -5 -9 -13 -2 -27 6 -11 15 -17 20 -14
5 3 11 1 15 -5 3 -5 -1 -10 -9 -10 -18 0 -21 -16 -6 -25 6 -4 7 -11 4 -17 -4
-7 -2 -8 4 -4 7 4 12 2 12 -5 0 -7 15 7 33 31 17 25 31 48 30 52 -2 5 2 8 9 8
6 0 4 6 -7 13 -11 9 -15 19 -10 27 5 9 4 11 -4 6 -6 -4 -18 -3 -25 3 -10 8
-16 7 -26 -3z m56 -50 c-1 -6 -12 -26 -25 -44 -19 -27 -26 -31 -38 -21 -12 11
-12 14 2 22 13 7 14 12 4 23 -6 7 -16 11 -23 8 -6 -3 -2 2 9 11 11 8 20 21 21
28 0 7 2 16 2 21 3 14 50 -34 48 -48z"/>
<path d="M4183 5657 c3 -8 1 -19 -5 -25 -8 -8 -8 -15 0 -25 9 -10 9 -16 0 -25
-7 -7 -8 -12 -2 -12 5 0 18 12 28 27 11 14 15 23 9 20 -6 -4 -14 0 -17 9 -4
12 -2 15 9 10 20 -7 19 -4 -7 18 -16 14 -20 15 -15 3z m11 -43 c3 -8 2 -12 -4
-9 -6 3 -10 10 -10 16 0 14 7 11 14 -7z"/>
<path d="M4089 5583 c-13 -16 -12 -17 4 -4 9 7 17 15 17 17 0 8 -8 3 -21 -13z"/>
<path d="M4016 5578 c3 -4 11 -5 19 -1 21 7 19 12 -4 10 -11 0 -18 -5 -15 -9z"/>
<path d="M4067 5559 c7 -7 15 -10 18 -7 3 3 -2 9 -12 12 -14 6 -15 5 -6 -5z"/>
<path d="M3886 5541 c-3 -4 6 -7 19 -7 14 0 22 2 19 5 -8 8 -34 10 -38 2z"/>
<path d="M3949 5523 c-13 -16 -12 -17 4 -4 16 13 21 21 13 21 -2 0 -10 -8 -17
-17z"/>
<path d="M3871 5513 c7 -12 15 -20 18 -17 3 2 -3 12 -13 22 -17 16 -18 16 -5
-5z"/>
<path d="M3994 5486 c0 -20 5 -33 13 -33 8 0 9 5 4 11 -5 6 -7 19 -6 28 2 10
0 20 -4 22 -4 3 -7 -10 -7 -28z"/>
<path d="M4056 5498 c3 -5 10 -6 15 -3 13 9 11 12 -6 12 -8 0 -12 -4 -9 -9z"/>
<path d="M3909 5483 c-13 -16 -12 -17 4 -4 9 7 17 15 17 17 0 8 -8 3 -21 -13z"/>
<path d="M4026 5478 c3 -5 10 -6 15 -3 13 9 11 12 -6 12 -8 0 -12 -4 -9 -9z"/>
<path d="M3923 5458 c-11 -19 -12 -37 -3 -43 5 -3 7 4 5 15 -2 11 3 24 13 30
9 5 12 10 5 10 -6 0 -15 -6 -20 -12z"/>
<path d="M3969 5383 c-13 -16 -12 -17 4 -4 9 7 17 15 17 17 0 8 -8 3 -21 -13z"/>
<path d="M2668 5719 c6 -9 8 -20 4 -25 -4 -5 -3 -6 2 -2 5 4 14 3 21 -2 8 -7
12 -5 12 5 0 8 -3 13 -5 10 -3 -3 -15 3 -26 12 -15 14 -18 14 -8 2z"/>
<path d="M2593 5673 c0 -9 4 -10 14 -2 7 6 13 12 13 14 0 1 -6 2 -13 2 -8 0
-14 -6 -14 -14z"/>
<path d="M2636 5682 c-3 -5 1 -9 9 -9 8 0 12 4 9 9 -3 4 -7 8 -9 8 -2 0 -6 -4
-9 -8z"/>
<path d="M2684 5662 c23 -26 23 -26 23 -7 0 8 -3 13 -5 10 -3 -3 -12 1 -21 7
-10 8 -9 4 3 -10z"/>
<path d="M2667 5639 c7 -9 11 -18 8 -21 -3 -3 3 -11 12 -19 16 -12 17 -12 6 2
-7 9 -11 18 -8 21 3 3 -3 11 -12 19 -16 12 -17 12 -6 -2z"/>
<path d="M2614 5626 c1 -8 5 -18 8 -22 4 -3 5 1 4 10 -1 8 -5 18 -8 22 -4 3
-5 -1 -4 -10z"/>
<path d="M2709 5617 c6 -8 9 -16 6 -19 -3 -2 2 -5 10 -5 13 0 13 3 -2 19 -19
21 -31 25 -14 5z"/>
<path d="M2604 5582 c23 -26 23 -26 23 -7 0 8 -3 13 -5 10 -3 -3 -12 1 -21 7
-10 8 -9 4 3 -10z"/>
<path d="M2653 5585 c0 -8 3 -13 5 -10 3 3 12 -1 21 -7 10 -8 9 -4 -3 10 -23
26 -23 26 -23 7z"/>
<path d="M2593 5554 c16 -20 52 -30 41 -12 -4 5 -9 7 -12 4 -3 -3 -15 2 -26
11 -21 18 -21 18 -3 -3z"/>
<path d="M2710 5556 c7 -7 13 -7 20 0 6 6 3 10 -10 10 -13 0 -16 -4 -10 -10z"/>
<path d="M2654 5546 c1 -8 5 -18 8 -22 4 -3 5 1 4 10 -1 8 -5 18 -8 22 -4 3
-5 -1 -4 -10z"/>
<path d="M2623 5504 c9 -11 15 -23 12 -26 -3 -2 2 -5 10 -5 10 0 12 4 5 12 -5
7 -6 16 -2 21 4 5 3 6 -2 2 -5 -4 -16 -2 -25 4 -12 10 -12 7 2 -8z"/>
<path d="M2703 5505 c17 -19 17 -19 35 0 16 18 16 18 0 6 -15 -11 -21 -11 -35
0 -17 12 -17 12 0 -6z"/>
<path d="M2590 5503 c0 -6 8 -17 18 -24 16 -13 16 -13 2 6 -8 11 -16 22 -17
24 -2 2 -3 0 -3 -6z"/>
<path d="M2669 5497 c6 -8 9 -16 6 -19 -3 -2 2 -5 10 -5 13 0 13 3 -2 19 -19
21 -31 25 -14 5z"/>
<path d="M2730 5436 c0 -2 8 -10 18 -17 15 -13 16 -12 3 4 -13 16 -21 21 -21
13z"/>
<path d="M2699 5413 c-13 -16 -12 -17 4 -4 16 13 21 21 13 21 -2 0 -10 -8 -17
-17z"/>
<path d="M2676 5378 c3 -5 10 -6 15 -3 13 9 11 12 -6 12 -8 0 -12 -4 -9 -9z"/>
<path d="M2701 5305 c9 -11 15 -37 14 -57 -1 -21 2 -38 6 -38 15 0 2 81 -16
98 -19 16 -19 16 -4 -3z"/>
<path d="M2740 5286 c0 -2 8 -10 18 -17 15 -13 16 -12 3 4 -13 16 -21 21 -21
13z"/>
<path d="M2670 5263 c0 -6 8 -17 18 -24 16 -13 16 -13 2 6 -8 11 -16 22 -17
24 -2 2 -3 0 -3 -6z"/>
<path d="M2654 5226 c1 -8 5 -18 8 -22 4 -3 5 1 4 10 -1 8 -5 18 -8 22 -4 3
-5 -1 -4 -10z"/>
<path d="M2646 5178 c4 -5 9 -7 12 -4 3 3 15 -2 26 -11 21 -18 21 -18 3 3 -16
20 -52 30 -41 12z"/>
<path d="M2754 5168 l-19 -23 23 19 c21 18 27 26 19 26 -2 0 -12 -10 -23 -22z"/>
<path d="M2691 5107 c-8 -10 -7 -14 2 -14 8 0 14 6 14 14 0 7 -1 13 -2 13 -2
0 -8 -6 -14 -13z"/>
<path d="M2733 5105 c0 -8 3 -13 5 -10 3 3 12 -1 21 -7 10 -8 9 -4 -3 10 -23
26 -23 26 -23 7z"/>
<path d="M2737 5069 c7 -7 15 -10 18 -7 3 3 -2 9 -12 12 -14 6 -15 5 -6 -5z"/>
<path d="M2674 5028 l-19 -23 23 19 c21 18 27 26 19 26 -2 0 -12 -10 -23 -22z"/>
<path d="M2755 5030 c10 -11 20 -20 23 -20 3 0 -3 9 -13 20 -10 11 -20 20 -23
20 -3 0 3 -9 13 -20z"/>
<path d="M2649 4983 c-8 -9 -14 -28 -14 -43 0 -15 -7 -35 -15 -46 -14 -17 -13
-18 1 -7 9 7 18 11 21 8 2 -3 4 12 3 33 -1 20 5 45 13 55 8 9 13 17 10 17 -3
0 -12 -7 -19 -17z"/>
<path d="M2576 4973 c-6 -14 -5 -15 5 -6 7 7 10 15 7 18 -3 3 -9 -2 -12 -12z"/>
<path d="M2699 4973 c-13 -17 -13 -17 6 -3 11 8 22 16 24 17 2 2 0 3 -6 3 -6
0 -17 -8 -24 -17z"/>
<path d="M2600 4955 c-7 -8 -16 -13 -20 -10 -5 3 -11 2 -14 -3 -10 -17 24 -8
41 10 9 10 14 18 11 18 -3 0 -11 -7 -18 -15z"/>
<path d="M2673 4926 l-18 -21 24 20 c13 11 25 19 28 17 3 -2 7 -2 9 1 2 2 -3
4 -11 4 -8 0 -23 -10 -32 -21z"/>
<path d="M2750 4942 c0 -5 7 -9 15 -9 8 0 12 4 9 9 -3 4 -9 8 -15 8 -5 0 -9
-4 -9 -8z"/>
<path d="M2695 4909 c-4 -6 -5 -12 -2 -15 2 -3 7 2 10 11 7 17 1 20 -8 4z"/>
<path d="M2742 4904 c10 -10 20 -16 22 -13 3 3 -5 11 -17 18 -21 13 -21 12 -5
-5z"/>
<path d="M2644 4859 c-19 -21 -19 -21 0 -18 11 2 20 12 22 22 3 22 1 22 -22
-4z"/>
<path d="M4990 5583 c0 -6 8 -17 18 -24 16 -13 16 -13 2 6 -8 11 -16 22 -17
24 -2 2 -3 0 -3 -6z"/>
<path d="M4974 5542 c4 -3 14 -7 22 -8 9 -1 13 0 10 4 -4 3 -14 7 -22 8 -9 1
-13 0 -10 -4z"/>
<path d="M4900 5526 c0 -2 8 -10 18 -17 15 -13 16 -12 3 4 -13 16 -21 21 -21
13z"/>
<path d="M4960 5506 c0 -2 8 -10 18 -17 15 -13 16 -12 3 4 -13 16 -21 21 -21
13z"/>
<path d="M4920 5480 c-9 -6 -10 -10 -3 -10 6 0 15 5 18 10 8 12 4 12 -15 0z"/>
<path d="M5034 5469 c-3 -6 2 -18 12 -27 17 -16 17 -16 5 0 -7 9 -10 22 -6 28
3 5 4 10 1 10 -3 0 -8 -5 -12 -11z"/>
<path d="M4965 5420 c-10 -11 -15 -20 -10 -20 4 0 1 -8 -6 -17 -13 -16 -12
-17 4 -4 9 8 15 16 12 19 -3 3 2 14 12 24 9 10 14 18 11 18 -3 0 -13 -9 -23
-20z"/>
<path d="M4975 5379 c-3 -4 2 -6 10 -5 21 3 28 13 10 13 -9 0 -18 -4 -20 -8z"/>
<path d="M4970 5356 c0 -2 8 -10 18 -17 15 -13 16 -12 3 4 -13 16 -21 21 -21
13z"/>
<path d="M5013 5306 c0 -15 22 -15 34 0 4 5 4 6 -1 2 -5 -4 -14 -3 -21 2 -8 7
-12 5 -12 -4z"/>
<path d="M5014 5260 c0 -13 4 -16 10 -10 7 7 7 13 0 20 -6 6 -10 3 -10 -10z"/>
<path d="M5075 5211 c-3 -5 -2 -12 3 -15 5 -3 9 1 9 9 0 17 -3 19 -12 6z"/>
<path d="M4994 5199 c-3 -6 -2 -15 3 -20 5 -5 9 -1 9 11 0 23 -2 24 -12 9z"/>
<path d="M5024 5202 c4 -3 14 -7 22 -8 9 -1 13 0 10 4 -4 3 -14 7 -22 8 -9 1
-13 0 -10 -4z"/>
<path d="M5020 5145 c0 -2 6 -8 13 -14 10 -8 14 -7 14 2 0 8 -6 14 -14 14 -7
0 -13 -1 -13 -2z"/>
<path d="M5069 5123 c-13 -16 -12 -17 4 -4 9 7 17 15 17 17 0 8 -8 3 -21 -13z"/>
<path d="M2579 4754 c-7 -9 -20 -12 -33 -9 -12 4 -16 3 -11 -2 6 -4 10 -22 10
-39 -1 -28 2 -31 21 -28 15 3 27 -2 33 -13 8 -13 10 -14 11 -4 0 11 4 9 15 -5
13 -16 14 -16 9 -1 -8 21 4 22 27 1 13 -12 16 -21 9 -33 -6 -13 -4 -17 10 -17
14 0 16 4 9 12 -7 8 -6 14 1 19 8 5 6 13 -6 26 -21 24 -11 38 13 17 20 -16 43
-18 43 -3 0 6 -9 10 -20 10 -12 0 -24 5 -28 10 -8 12 -47 14 -58 3 -4 -4 -13
-3 -20 3 -11 9 -10 15 3 35 8 13 14 24 12 25 -31 6 -40 5 -50 -7z m27 -20
c-13 -19 -13 -24 3 -38 10 -9 21 -13 25 -9 3 4 14 8 22 9 9 1 13 -1 9 -4 -4
-4 -11 -8 -16 -8 -5 -1 -10 -2 -11 -4 -10 -7 -39 -7 -44 1 -3 5 -15 9 -27 9
-17 0 -19 2 -7 9 8 6 17 8 20 6 4 -2 7 2 7 10 0 18 -14 20 -20 3 -2 -7 -8 -10
-12 -6 -9 9 32 45 52 45 11 0 10 -4 -1 -23z m75 -81 c13 -16 12 -17 -3 -4 -10
7 -18 15 -18 17 0 8 8 3 21 -13z"/>
<path d="M2756 4762 c-3 -5 1 -18 8 -28 10 -13 11 -23 4 -31 -6 -7 -8 -14 -4
-14 14 -3 26 -7 29 -9 1 -1 10 -3 20 -5 15 -3 16 -1 6 11 -9 11 -8 18 2 32 13
15 12 16 -3 3 -15 -11 -21 -11 -33 -1 -9 7 -14 19 -11 26 6 15 -10 29 -18 16z
m45 -69 c12 -16 12 -17 -2 -6 -9 7 -20 9 -24 5 -5 -4 -5 -1 -1 6 9 16 11 15
27 -5z"/>
<path d="M2910 4695 c5 -7 8 -14 5 -17 -3 -2 2 -5 10 -5 10 0 12 4 5 12 -5 7
-8 14 -5 17 3 2 -2 5 -10 5 -10 0 -12 -4 -5 -12z"/>
<path d="M2815 4630 c-4 -6 -11 -8 -16 -5 -5 4 -9 1 -9 -4 0 -16 16 -13 30 4
7 8 10 15 7 15 -3 0 -9 -5 -12 -10z"/>
<path d="M2858 4628 c8 -10 10 -23 6 -30 -6 -9 -3 -9 9 1 10 8 16 14 15 15 -2
1 -12 8 -23 16 -18 14 -19 14 -7 -2z"/>
<path d="M2831 4607 c-8 -10 -7 -14 2 -14 8 0 14 6 14 14 0 7 -1 13 -2 13 -2
0 -8 -6 -14 -13z"/>
<path d="M2783 4560 c2 -8 10 -15 18 -15 8 0 20 -7 27 -15 11 -13 11 -11 2 8
-6 12 -16 20 -22 16 -5 -4 -15 0 -20 7 -8 12 -9 11 -5 -1z"/>
<path d="M3934 4660 c0 -13 4 -16 10 -10 7 7 7 13 0 20 -6 6 -10 3 -10 -10z"/>
<path d="M2619 4548 c-6 -25 -5 -38 3 -49 8 -11 9 -11 5 2 -3 9 -1 21 5 27 6
6 6 12 -1 16 -6 4 -11 6 -12 4z"/>
<path d="M2685 4482 c-11 -15 -20 -32 -21 -39 -3 -17 13 -26 21 -13 4 6 10 8
15 5 5 -3 11 -1 14 4 4 5 1 13 -5 16 -7 5 -2 16 13 33 13 15 16 21 6 14 -9 -7
-18 -9 -20 -3 -1 5 -12 -3 -23 -17z m17 -4 c-9 -9 -9 -15 0 -27 7 -9 8 -13 4
-9 -5 4 -15 3 -22 -3 -9 -7 -12 -6 -10 4 2 16 25 47 34 47 3 0 1 -5 -6 -12z"/>
<path d="M4055 4391 c-3 -6 -10 -9 -14 -7 -4 3 -8 -1 -8 -8 0 -8 7 -12 15 -8
9 3 13 1 9 -5 -4 -7 0 -10 10 -8 10 1 17 9 15 16 -5 22 -19 32 -27 20z m19
-17 c3 -8 2 -12 -4 -9 -6 3 -10 10 -10 16 0 14 7 11 14 -7z"/>
<path d="M4097 4193 c-14 -13 -6 -23 16 -19 13 2 32 -5 47 -18 16 -13 20 -15
11 -3 -7 9 -10 17 -6 17 4 0 2 7 -5 15 -9 11 -16 13 -23 6 -7 -7 -15 -7 -22
-1 -7 5 -15 7 -18 3z"/>
<path d="M3546 3812 c-3 -6 1 -15 8 -21 8 -7 17 -8 20 -3 3 6 -1 15 -8 21 -8
7 -17 8 -20 3z"/>
<path d="M3470 3675 c-10 -12 -16 -13 -29 -3 -14 12 -14 11 -2 -4 7 -10 10
-18 7 -18 -4 0 2 -13 13 -29 11 -15 17 -31 13 -35 -4 -4 1 -12 11 -17 9 -6 15
-14 12 -18 -2 -5 2 -14 9 -20 20 -17 15 12 -6 36 -15 17 -15 20 3 41 10 13 23
21 28 18 5 -3 16 -3 25 0 12 5 9 11 -17 28 -53 36 -54 36 -67 21z m36 -17 c5
0 18 -7 29 -15 20 -15 20 -15 -2 -8 -16 4 -25 0 -33 -15 -6 -11 -15 -18 -21
-15 -5 4 -7 10 -4 15 3 4 -2 11 -10 14 -13 5 -13 8 2 26 11 12 20 16 24 9 3
-6 10 -11 15 -11z"/>
<path d="M3476 3652 c-3 -6 -1 -14 5 -17 14 -9 20 -2 10 14 -6 8 -11 9 -15 3z"/>
<path d="M3510 3500 c0 -5 5 -10 10 -10 6 0 10 5 10 10 0 6 -4 10 -10 10 -5 0
-10 -4 -10 -10z"/>
<path d="M3105 3600 c-3 -6 1 -7 9 -4 18 7 21 14 7 14 -6 0 -13 -4 -16 -10z"/>
<path d="M3120 3586 c0 -2 8 -10 18 -17 15 -13 16 -12 3 4 -13 16 -21 21 -21
13z"/>
<path d="M3094 3549 c-3 -6 -2 -15 3 -20 5 -5 9 -1 9 11 0 23 -2 24 -12 9z"/>
<path d="M3084 3502 c23 -26 23 -26 23 -7 0 8 -3 13 -5 10 -3 -3 -12 1 -21 7
-10 8 -9 4 3 -10z"/>
<path d="M3586 3591 c-3 -5 2 -15 12 -22 15 -13 16 -12 4 3 -10 13 -10 17 0
21 9 4 9 6 1 6 -6 1 -14 -3 -17 -8z"/>
<path d="M3595 3540 c-3 -5 -1 -10 4 -10 6 0 11 5 11 10 0 6 -2 10 -4 10 -3 0
-8 -4 -11 -10z"/>
<path d="M2702 3307 c14 -11 15 -17 5 -28 -7 -7 -3 -6 8 2 11 9 30 15 43 14
13 -1 25 1 27 5 2 4 -10 6 -28 5 -18 -1 -41 2 -52 7 -18 8 -19 8 -3 -5z"/>
<path d="M2659 3293 c-12 -16 -12 -17 2 -6 9 7 20 9 24 5 5 -4 5 -1 1 6 -9 16
-11 15 -27 -5z"/>
<path d="M2675 3270 c-4 -6 -12 -7 -18 -4 -7 4 -8 3 -4 -1 13 -15 34 -14 34 1
0 17 -4 18 -12 4z"/>
<path d="M4155 3200 c-3 -5 -1 -10 4 -10 6 0 11 5 11 10 0 6 -2 10 -4 10 -3 0
-8 -4 -11 -10z"/>
<path d="M3737 3223 c-7 -11 4 -23 33 -37 12 -6 12 -5 -1 6 -9 7 -18 20 -21
28 -3 9 -7 10 -11 3z"/>
<path d="M3794 3059 c-19 -22 -19 -22 4 -10 12 6 22 16 22 21 0 15 -5 12 -26
-11z"/>
<path d="M3847 2943 c-4 -3 -7 -11 -7 -17 0 -6 5 -5 12 2 6 6 9 14 7 17 -3 3
-9 2 -12 -2z"/>
<path d="M3870 2941 c0 -6 4 -13 10 -16 6 -3 7 1 4 9 -7 18 -14 21 -14 7z"/>
<path d="M3885 2890 c10 -11 20 -20 22 -20 2 0 -2 9 -9 20 -7 11 -17 20 -22
20 -5 0 -1 -9 9 -20z"/>
<path d="M3903 2833 c0 -11 7 -20 14 -20 10 0 10 4 1 16 -7 9 -13 18 -15 20
-1 2 -1 -5 0 -16z"/>
<path d="M4391 2427 c-8 -10 -7 -14 2 -14 8 0 14 6 14 14 0 7 -1 13 -2 13 -2
0 -8 -6 -14 -13z"/>
<path d="M4434 2352 c4 -7 2 -21 -5 -30 -12 -15 -11 -15 6 0 16 15 17 20 6 30
-11 11 -13 10 -7 0z"/>
<path d="M4444 2298 c-12 -14 -13 -18 -3 -10 9 6 18 10 21 7 2 -3 5 2 5 10 0
19 0 19 -23 -7z"/>
<path d="M4419 2253 c-13 -16 -12 -17 4 -4 9 7 17 15 17 17 0 8 -8 3 -21 -13z"/>
<path d="M4356 2241 c-3 -4 4 -17 17 -27 22 -19 22 -19 4 2 -9 11 -14 24 -10
27 3 4 4 7 0 7 -3 0 -8 -4 -11 -9z"/>
<path d="M4440 2235 c-7 -8 -16 -13 -20 -10 -5 3 -11 2 -14 -3 -10 -17 24 -8
41 10 9 10 14 18 11 18 -3 0 -11 -7 -18 -15z"/>
<path d="M4474 2204 c0 -20 11 -25 11 -6 0 4 3 12 7 18 4 6 1 11 -5 11 -7 0
-13 -11 -13 -23z"/>
<path d="M4419 2198 c-5 -18 -6 -38 -1 -34 7 8 12 36 6 36 -2 0 -4 -1 -5 -2z"/>
<path d="M4346 2178 c3 -4 9 -8 15 -8 5 0 9 4 9 8 0 5 -7 9 -15 9 -8 0 -12 -4
-9 -9z"/>
<path d="M4439 2153 c-13 -16 -12 -17 4 -4 16 13 21 21 13 21 -2 0 -10 -8 -17
-17z"/>
<path d="M4515 2150 c10 -11 20 -20 23 -20 3 0 -3 9 -13 20 -10 11 -20 20 -23
20 -3 0 3 -9 13 -20z"/>
<path d="M4429 2118 c11 -15 11 -21 0 -35 -12 -17 -12 -17 6 0 19 17 19 17 0
35 -18 16 -18 16 -6 0z"/>
<path d="M4510 2096 c0 -2 8 -10 18 -17 15 -13 16 -12 3 4 -13 16 -21 21 -21
13z"/>
<path d="M4444 2058 c-12 -14 -13 -18 -3 -10 9 6 18 10 21 7 2 -3 5 2 5 10 0
19 0 19 -23 -7z"/>
<path d="M4509 2043 c-13 -16 -12 -17 4 -4 9 7 17 15 17 17 0 8 -8 3 -21 -13z"/>
<path d="M4400 2040 c-9 -6 -10 -10 -3 -10 6 0 15 5 18 10 8 12 4 12 -15 0z"/>
<path d="M4539 2038 c-5 -18 -6 -38 -1 -34 7 8 12 36 6 36 -2 0 -4 -1 -5 -2z"/>
<path d="M4435 1970 c10 -11 20 -20 23 -20 3 0 -3 9 -13 20 -10 11 -20 20 -23
20 -3 0 3 -9 13 -20z"/>
<path d="M4513 1966 l-18 -21 24 20 c13 11 25 19 28 17 3 -2 7 -2 9 1 2 2 -3
4 -11 4 -8 0 -23 -10 -32 -21z"/>
<path d="M4593 1955 c0 -8 4 -12 9 -9 5 3 6 10 3 15 -9 13 -12 11 -12 -6z"/>
<path d="M4519 1913 c-13 -16 -12 -17 4 -4 9 7 17 15 17 17 0 8 -8 3 -21 -13z"/>
<path d="M4593 1845 c0 -8 4 -12 9 -9 5 3 6 10 3 15 -9 13 -12 11 -12 -6z"/>
<path d="M2004 7465 c-9 -14 -15 -27 -13 -30 3 -2 12 10 21 26 21 36 15 39 -8
4z"/>
<path d="M1955 7459 c-4 -6 -5 -12 -2 -15 2 -3 7 2 10 11 7 17 1 20 -8 4z"/>
<path d="M2044 7458 c10 -6 22 -6 26 -2 5 5 -3 10 -18 11 -22 1 -24 0 -8 -9z"/>
<path d="M1912 7453 c-19 -7 -34 -40 -17 -40 7 0 11 7 7 15 -3 10 -1 13 6 8 6
-3 14 -1 17 5 9 13 4 18 -13 12z"/>
<path d="M2119 7433 c-13 -16 -12 -17 4 -4 9 7 17 15 17 17 0 8 -8 3 -21 -13z"/>
<path d="M2156 7442 c-3 -5 1 -9 9 -9 8 0 12 4 9 9 -3 4 -7 8 -9 8 -2 0 -6 -4
-9 -8z"/>
<path d="M2010 7436 c0 -2 8 -10 18 -17 15 -13 16 -12 3 4 -13 16 -21 21 -21
13z"/>
<path d="M1999 7415 c-1 -3 -2 -8 -3 -12 -1 -5 -4 -13 -8 -19 -4 -6 -1 -11 5
-11 7 0 13 11 13 24 0 21 -4 31 -7 18z"/>
<path d="M1955 7401 c-3 -5 -2 -12 3 -15 5 -3 9 1 9 9 0 17 -3 19 -12 6z"/>
<path d="M1706 7257 c5 -187 12 -308 18 -315 4 -3 12 0 18 6 7 7 8 12 2 12 -5
0 -10 17 -9 38 0 20 -3 54 -6 75 -4 20 -2 37 3 37 5 0 6 5 2 11 -4 7 -8 40 -9
74 -2 58 0 63 18 59 11 -2 16 0 13 4 -4 4 -13 7 -19 7 -7 0 -12 15 -12 35 0
19 -4 42 -9 50 -6 9 -1 7 12 -4 12 -11 20 -21 17 -24 -2 -3 3 -11 13 -19 13
-10 14 -13 2 -11 -8 2 -18 8 -22 13 -5 6 -8 6 -8 -2 0 -17 17 -25 41 -18 15 5
17 10 10 19 -6 7 -8 23 -6 36 3 17 2 21 -6 13 -12 -12 -42 -6 -35 6 3 4 -3 7
-13 8 -16 1 -17 -9 -15 -110z"/>
<path d="M1827 7259 c7 -7 15 -10 18 -7 3 3 -2 9 -12 12 -14 6 -15 5 -6 -5z"/>
<path d="M1790 7256 c0 -2 8 -10 18 -17 15 -13 16 -12 3 4 -13 16 -21 21 -21
13z"/>
<path d="M1869 7243 c-13 -16 -12 -17 4 -4 9 7 17 15 17 17 0 8 -8 3 -21 -13z"/>
<path d="M1886 7225 c-11 -8 -15 -15 -9 -15 6 0 16 7 23 15 16 19 11 19 -14 0z"/>
<path d="M1746 7220 c5 -8 9 -18 9 -22 0 -3 3 -9 7 -13 3 -4 5 0 4 9 -1 9 -8
22 -16 29 -10 10 -11 9 -4 -3z"/>
<path d="M1794 7193 c16 -20 36 -23 36 -6 0 4 -3 3 -7 0 -3 -4 -16 1 -27 10
-21 18 -21 18 -2 -4z"/>
<path d="M1750 7140 c0 -5 5 -10 10 -10 6 0 10 5 10 10 0 6 -4 10 -10 10 -5 0
-10 -4 -10 -10z"/>
<path d="M1773 7013 c0 -9 4 -10 14 -2 7 6 13 12 13 14 0 1 -6 2 -13 2 -8 0
-14 -6 -14 -14z"/>
<path d="M1799 6993 c-13 -16 -12 -17 4 -4 16 13 21 21 13 21 -2 0 -10 -8 -17
-17z"/>
<path d="M1756 6978 c3 -5 10 -6 15 -3 13 9 11 12 -6 12 -8 0 -12 -4 -9 -9z"/>
<path d="M1779 6653 c-13 -16 -12 -17 4 -4 9 7 17 15 17 17 0 8 -8 3 -21 -13z"/>
<path d="M1835 6390 c10 -11 20 -20 23 -20 3 0 -3 9 -13 20 -10 11 -20 20 -23
20 -3 0 3 -9 13 -20z"/>
<path d="M1791 6387 c2 -1 13 -9 24 -17 19 -14 19 -14 6 3 -7 9 -18 17 -24 17
-6 0 -8 -1 -6 -3z"/>
<path d="M1854 6346 c1 -8 5 -18 8 -22 4 -3 5 1 4 10 -1 8 -5 18 -8 22 -4 3
-5 -1 -4 -10z"/>
<path d="M1804 6342 c4 -3 14 -7 22 -8 9 -1 13 0 10 4 -4 3 -14 7 -22 8 -9 1
-13 0 -10 -4z"/>
<path d="M1830 6181 c0 -5 8 -15 18 -22 15 -12 16 -12 5 2 -7 9 -10 19 -6 22
3 4 1 7 -5 7 -7 0 -12 -4 -12 -9z"/>
<path d="M1933 6133 c0 -9 4 -10 14 -2 7 6 13 12 13 14 0 1 -6 2 -13 2 -8 0
-14 -6 -14 -14z"/>
<path d="M1870 6136 c0 -2 8 -10 18 -17 15 -13 16 -12 3 4 -13 16 -21 21 -21
13z"/>
<path d="M1959 6113 c-13 -16 -12 -17 4 -4 9 7 17 15 17 17 0 8 -8 3 -21 -13z"/>
<path d="M1869 6083 c-13 -16 -12 -17 4 -4 9 7 17 15 17 17 0 8 -8 3 -21 -13z"/>
<path d="M1900 6069 c0 -5 -4 -7 -10 -4 -14 9 -12 -1 3 -13 10 -8 13 -6 14 9
1 10 0 19 -3 19 -2 0 -4 -5 -4 -11z"/>
<path d="M1794 6054 c1 -8 4 -15 7 -16 2 -2 3 -1 2 1 -2 2 2 9 7 16 7 8 5 12
-4 12 -8 0 -13 -6 -12 -13z"/>
<path d="M1825 6040 c-3 -6 1 -7 9 -4 18 7 21 14 7 14 -6 0 -13 -4 -16 -10z"/>
<path d="M1871 6033 c7 -12 15 -20 18 -17 3 2 -3 12 -13 22 -17 16 -18 16 -5
-5z"/>
<path d="M1826 5998 c3 -5 10 -6 15 -3 13 9 11 12 -6 12 -8 0 -12 -4 -9 -9z"/>
<path d="M1886 4943 c-6 -14 -5 -15 5 -6 7 7 10 15 7 18 -3 3 -9 -2 -12 -12z"/>
<path d="M1850 4941 c0 -6 4 -13 10 -16 6 -3 7 1 4 9 -7 18 -14 21 -14 7z"/>
<path d="M1825 4909 c-4 -5 -4 -13 -1 -16 3 -4 6 0 6 8 0 11 2 11 10 -1 6 -9
10 -10 10 -3 0 17 -17 25 -25 12z"/>
<path d="M1825 4871 c-3 -5 -2 -12 3 -15 5 -3 9 1 9 9 0 17 -3 19 -12 6z"/>
<path d="M1889 4864 c-20 -24 -21 -50 -1 -65 15 -12 15 -12 5 1 -14 19 -12 42
6 64 7 9 11 16 8 16 -2 0 -11 -7 -18 -16z"/>
<path d="M1841 4841 c-7 -5 -12 -14 -10 -20 2 -6 10 -2 17 9 14 22 13 23 -7
11z"/>
<path d="M2076 4822 c-3 -5 1 -9 9 -9 8 0 12 4 9 9 -3 4 -7 8 -9 8 -2 0 -6 -4
-9 -8z"/>
<path d="M2030 4816 c0 -2 8 -10 18 -17 15 -13 16 -12 3 4 -13 16 -21 21 -21
13z"/>
<path d="M1972 4800 c2 -8 -2 -14 -8 -13 -6 1 -11 -5 -11 -12 0 -10 4 -12 12
-5 7 5 14 7 18 4 3 -3 4 1 3 10 -1 8 -6 19 -10 23 -4 4 -6 1 -4 -7z"/>
<path d="M1835 4665 c3 -77 7 -176 10 -220 2 -44 6 -132 9 -195 3 -63 7 -125
10 -137 3 -13 0 -23 -6 -23 -7 0 -6 -6 2 -15 7 -8 10 -15 7 -15 -3 0 -1 -16 3
-35 5 -21 4 -35 -2 -35 -5 0 -6 -5 -3 -10 3 -6 7 -28 7 -50 0 -35 2 -38 19
-29 22 11 26 21 6 13 -18 -6 -22 63 -5 84 11 13 11 14 -1 8 -9 -6 -12 -5 -9 5
3 8 1 22 -4 32 -10 19 2 23 18 7 7 -7 11 -6 11 4 0 8 -3 15 -6 14 -22 -2 -26
10 -29 72 -2 53 0 70 10 70 9 0 9 3 2 8 -15 10 -27 75 -12 66 7 -5 8 -3 3 6
-4 7 -9 26 -10 42 -2 25 0 29 16 25 11 -3 17 -1 13 4 -3 5 -11 9 -17 9 -7 0
-13 16 -14 36 -2 32 0 34 15 23 11 -9 10 -5 -4 11 -25 31 -21 63 13 90 14 11
22 20 18 20 -5 0 -17 -7 -27 -17 -25 -23 -35 -8 -12 19 17 21 17 21 1 8 -18
-13 -19 -11 -17 36 1 27 1 51 0 54 -6 18 -4 60 3 60 4 0 5 6 0 12 -4 7 -8 26
-9 41 -2 16 -5 32 -9 35 -3 4 -4 -56 0 -133z"/>
<path d="M1851 4793 c-1 -17 16 -25 25 -12 4 7 3 9 -4 5 -5 -3 -13 0 -15 6 -4
9 -6 10 -6 1z"/>
<path d="M2013 4783 c1 -17 4 -19 14 -11 15 12 18 22 4 14 -5 -4 -11 0 -14 6
-3 7 -4 3 -4 -9z"/>
<path d="M1910 4754 c6 -6 6 -15 2 -20 -4 -5 -3 -6 2 -2 5 4 16 2 25 -5 14
-10 14 -10 3 5 -8 9 -11 21 -9 25 3 5 -3 9 -13 9 -13 0 -16 -4 -10 -12z"/>
<path d="M2039 4753 c-13 -16 -12 -17 4 -4 9 7 17 15 17 17 0 8 -8 3 -21 -13z"/>
<path d="M2320 4755 c-7 -9 -15 -13 -18 -10 -3 3 -12 -1 -21 -9 -9 -8 -19 -15
-23 -15 -5 -1 -9 -1 -10 -2 -2 -1 -27 -2 -56 -3 -53 -2 -81 12 -67 34 3 5 1
10 -6 10 -7 0 -9 -8 -6 -21 3 -12 0 -22 -9 -26 -10 -4 -9 -9 9 -24 12 -10 17
-18 12 -19 -6 0 -16 5 -22 11 -8 8 -13 7 -18 -2 -5 -8 -4 -10 4 -5 6 4 14 0
17 -9 6 -14 10 -13 30 6 22 21 25 21 42 5 17 -15 20 -15 32 -1 7 9 15 13 18
10 3 -3 11 0 19 6 7 6 13 8 13 4 0 -4 7 -2 15 5 8 7 15 9 15 5 0 -4 6 -3 13 2
6 6 20 9 29 8 9 -2 24 6 34 16 13 15 20 16 31 8 11 -9 12 -8 7 4 -4 10 -14 15
-27 13 -12 -2 -27 1 -33 5 -7 6 -16 3 -24 -6z m46 -7 c4 4 3 0 -4 -10 -7 -9
-21 -15 -30 -13 -9 1 -23 -2 -29 -8 -7 -5 -13 -6 -13 -2 0 4 -7 2 -15 -5 -8
-7 -15 -9 -15 -5 0 4 -7 2 -15 -5 -8 -7 -15 -9 -15 -5 0 5 -8 1 -18 -8 -14
-13 -21 -14 -30 -5 -7 7 -12 17 -12 23 0 5 5 3 10 -5 7 -10 10 -11 10 -2 0 8
9 11 25 8 13 -3 27 0 31 5 3 5 9 7 14 4 4 -3 13 2 20 10 7 8 16 13 20 10 4 -3
13 2 20 10 9 11 16 12 25 5 6 -5 16 -6 21 -2z m-210 -40 c4 4 2 -1 -5 -11 -10
-13 -17 -15 -27 -6 -8 6 -11 15 -8 21 4 5 11 5 18 -1 7 -6 17 -7 22 -3z"/>
<path d="M2326 4742 c-3 -5 1 -9 9 -9 8 0 12 4 9 9 -3 4 -7 8 -9 8 -2 0 -6 -4
-9 -8z"/>
<path d="M1975 4750 c-4 -6 -11 -7 -17 -4 -7 4 -8 2 -4 -5 6 -9 11 -9 22 0 14
11 18 19 10 19 -3 0 -8 -5 -11 -10z"/>
<path d="M2065 4739 c-3 -4 2 -6 10 -5 21 3 28 13 10 13 -9 0 -18 -4 -20 -8z"/>
<path d="M1985 4719 c-3 -4 2 -6 10 -5 21 3 28 13 10 13 -9 0 -18 -4 -20 -8z"/>
<path d="M1903 4704 c9 -11 15 -23 12 -26 -3 -2 2 -5 10 -5 10 0 12 4 5 12 -5
7 -6 16 -2 21 4 5 3 6 -2 2 -5 -4 -16 -2 -25 4 -12 10 -12 7 2 -8z"/>
<path d="M1949 4697 c6 -8 9 -16 6 -19 -3 -2 2 -5 10 -5 13 0 13 3 -2 19 -19
21 -31 25 -14 5z"/>
<path d="M2031 4707 c2 -1 13 -9 24 -17 19 -14 19 -14 6 3 -7 9 -18 17 -24 17
-6 0 -8 -1 -6 -3z"/>
<path d="M2415 4700 c-4 -6 -14 -9 -24 -6 -11 4 -10 1 4 -9 23 -18 26 -34 11
-54 -8 -11 -8 -13 2 -7 7 4 12 2 12 -6 1 -8 6 -6 15 6 8 10 11 24 7 30 -3 6
-8 20 -9 30 -4 26 -9 30 -18 16z m20 -49 c3 -5 2 -12 -3 -15 -5 -3 -9 1 -9 9
0 17 3 19 12 6z"/>
<path d="M1872 4687 c-8 -10 -6 -13 7 -13 11 0 17 6 14 13 -3 7 -6 13 -8 13
-1 0 -7 -6 -13 -13z"/>
<path d="M1990 4659 c0 -5 5 -7 10 -4 6 3 10 8 10 11 0 2 -4 4 -10 4 -5 0 -10
-5 -10 -11z"/>
<path d="M2033 4633 c0 -9 4 -10 14 -2 7 6 13 12 13 14 0 1 -6 2 -13 2 -8 0
-14 -6 -14 -14z"/>
<path d="M1936 4627 c3 -10 9 -15 12 -12 3 3 0 11 -7 18 -10 9 -11 8 -5 -6z"/>
<path d="M2499 4609 c-5 -22 -4 -51 1 -54 3 -2 11 5 18 15 9 14 8 21 -3 30 -8
7 -15 11 -16 9z"/>
<path d="M1929 4583 c-13 -16 -12 -17 4 -4 9 7 17 15 17 17 0 8 -8 3 -21 -13z"/>
<path d="M1951 4567 c-13 -21 -12 -21 5 -5 10 10 16 20 13 22 -3 3 -11 -5 -18
-17z"/>
<path d="M1980 4549 c0 -5 -4 -7 -10 -4 -14 9 -12 -1 3 -13 10 -8 13 -6 14 9
1 10 0 19 -3 19 -2 0 -4 -5 -4 -11z"/>
<path d="M1917 4508 c19 -21 31 -25 14 -5 -6 8 -9 16 -6 19 3 2 -2 5 -10 5
-13 0 -13 -3 2 -19z"/>
<path d="M1940 4526 c0 -2 8 -10 18 -17 15 -13 16 -12 3 4 -13 16 -21 21 -21
13z"/>
<path d="M1890 4501 c0 -6 4 -13 10 -16 6 -3 7 1 4 9 -7 18 -14 21 -14 7z"/>
<path d="M1884 4462 c23 -26 23 -26 23 -7 0 8 -3 13 -5 10 -3 -3 -12 1 -21 7
-10 8 -9 4 3 -10z"/>
<path d="M1900 4309 c0 -5 -4 -7 -10 -4 -14 9 -12 -1 3 -13 10 -8 13 -6 14 9
1 10 0 19 -3 19 -2 0 -4 -5 -4 -11z"/>
<path d="M1896 4112 c-2 -4 -1 -14 4 -22 7 -11 9 -9 7 8 -1 24 -3 26 -11 14z"/>
<path d="M1926 4017 c3 -10 9 -15 12 -12 3 3 0 11 -7 18 -10 9 -11 8 -5 -6z"/>
<path d="M1933 3973 c0 -9 4 -10 14 -2 7 6 13 12 13 14 0 1 -6 2 -13 2 -8 0
-14 -6 -14 -14z"/>
<path d="M1883 3882 c-12 -8 -11 -77 1 -90 5 -4 6 11 3 33 -3 22 -1 45 5 52
12 15 9 16 -9 5z"/>
<path d="M1907 3863 c-3 -5 4 -15 16 -23 21 -12 21 -12 7 6 -8 10 -15 20 -16
22 -1 2 -4 -1 -7 -5z"/>
<path d="M1904 3812 c0 -10 6 -19 13 -19 8 0 9 6 2 19 -5 10 -11 18 -12 18 -2
0 -3 -8 -3 -18z"/>
<path d="M1950 3816 c0 -2 8 -10 18 -17 15 -13 16 -12 3 4 -13 16 -21 21 -21
13z"/>
<path d="M1877 3774 c7 -3 9 -13 6 -22 -4 -14 -3 -14 5 -2 12 16 7 30 -11 29
-9 0 -9 -2 0 -5z"/>
<path d="M1935 3750 c-4 -6 -10 -8 -15 -5 -5 3 -12 0 -16 -6 -5 -8 -3 -9 6 -4
9 6 12 4 8 -7 -4 -8 0 -15 8 -15 7 0 11 4 8 9 -3 5 0 15 6 23 7 8 10 15 7 15
-3 0 -9 -5 -12 -10z"/>
<path d="M1953 3727 c0 -8 6 -14 14 -14 9 0 10 4 2 14 -6 7 -12 13 -14 13 -1
0 -2 -6 -2 -13z"/>
<path d="M1885 3697 c4 -46 11 -55 28 -37 8 9 8 11 0 6 -6 -3 -14 -2 -18 4 -3
5 0 10 7 10 9 0 10 2 2 8 -7 4 -14 16 -17 27 -3 11 -4 3 -2 -18z"/>
<path d="M1997 3709 c12 -15 55 -20 68 -8 3 3 -7 5 -22 4 -16 -1 -35 3 -43 9
-13 9 -13 9 -3 -5z"/>
<path d="M1987 3679 c7 -7 15 -10 18 -7 3 3 -2 9 -12 12 -14 6 -15 5 -6 -5z"/>
<path d="M1885 3615 c0 -13 3 -21 8 -18 4 2 7 10 7 18 0 8 -3 16 -7 18 -5 3
-8 -5 -8 -18z"/>
<path d="M1967 3627 c-7 -18 38 -17 55 2 11 11 10 12 -2 5 -20 -11 -34 -12
-41 -1 -3 5 -9 2 -12 -6z"/>
<path d="M2050 3621 c0 -6 4 -13 10 -16 6 -3 7 1 4 9 -7 18 -14 21 -14 7z"/>
<path d="M1971 3587 c-8 -10 -7 -14 2 -14 8 0 14 6 14 14 0 7 -1 13 -2 13 -2
0 -8 -6 -14 -13z"/>
<path d="M1894 3578 c-3 -5 0 -7 7 -6 7 2 13 -2 14 -9 0 -22 11 -22 11 1 0 22
-21 32 -32 14z"/>
<path d="M1940 3566 c0 -2 8 -10 18 -17 15 -13 16 -12 3 4 -13 16 -21 21 -21
13z"/>
<path d="M2072 3551 c7 -9 13 -17 14 -19 1 -1 7 4 14 13 11 13 10 14 -5 9 -11
-5 -16 -4 -12 3 3 5 0 10 -8 10 -12 0 -12 -3 -3 -16z"/>
<path d="M1885 3551 c-3 -5 -1 -12 5 -16 6 -4 7 -11 4 -17 -4 -6 -2 -8 4 -4 5
3 12 1 14 -5 2 -7 10 -4 18 7 10 12 11 15 2 10 -15 -9 -45 12 -36 25 3 5 3 9
0 9 -3 0 -7 -4 -11 -9z"/>
<path d="M1977 3541 c-4 -17 -3 -21 5 -13 5 5 8 16 6 23 -3 8 -7 3 -11 -10z"/>
<path d="M2018 3548 c8 -9 11 -23 7 -30 -4 -7 0 -5 8 4 11 14 16 15 27 5 12
-10 12 -9 1 6 -8 9 -16 15 -19 12 -3 -3 -12 1 -21 8 -14 10 -14 10 -3 -5z"/>
<path d="M1970 3501 c0 -6 4 -13 10 -16 6 -3 7 1 4 9 -7 18 -14 21 -14 7z"/>
<path d="M2046 3498 c3 -5 10 -6 15 -3 13 9 11 12 -6 12 -8 0 -12 -4 -9 -9z"/>
<path d="M1893 3465 c0 -20 4 -30 8 -24 4 7 6 21 3 32 -6 33 -11 29 -11 -8z"/>
<path d="M2014 3469 c-3 -6 -2 -15 3 -20 5 -5 9 -1 9 11 0 23 -2 24 -12 9z"/>
<path d="M2093 3465 c0 -8 3 -13 5 -10 3 3 10 0 17 -5 8 -7 12 -5 12 5 0 8 -3
13 -5 10 -3 -3 -10 0 -17 5 -8 7 -12 5 -12 -5z"/>
<path d="M1924 3458 c-3 -4 5 -5 17 -3 30 6 36 14 9 12 -12 -1 -24 -5 -26 -9z"/>
<path d="M1955 3441 c-3 -5 -2 -12 3 -15 5 -3 9 1 9 9 0 17 -3 19 -12 6z"/>
<path d="M1988 3438 c9 -9 7 -15 -6 -25 -15 -13 -14 -13 6 -3 19 9 21 14 11
26 -6 8 -14 14 -17 14 -3 0 -1 -5 6 -12z"/>
<path d="M2044 3418 c-12 -14 -13 -18 -3 -10 9 6 18 10 21 7 2 -3 5 2 5 10 0
19 0 19 -23 -7z"/>
<path d="M1925 3400 c-4 -6 -12 -7 -18 -4 -7 4 -9 4 -5 -1 4 -4 3 -14 -3 -21
-7 -9 -6 -14 3 -20 7 -4 10 -3 5 1 -4 5 3 19 15 32 12 13 19 23 15 23 -3 0 -9
-5 -12 -10z"/>
<path d="M2000 3395 c-11 -13 -11 -18 0 -28 10 -9 11 -9 6 1 -4 7 -2 19 4 27
7 8 10 15 7 15 -2 0 -10 -7 -17 -15z"/>
<path d="M1971 3347 c-8 -10 -7 -14 2 -14 8 0 14 6 14 14 0 7 -1 13 -2 13 -2
0 -8 -6 -14 -13z"/>
<path d="M1914 3322 c-8 -5 -3 -14 15 -26 26 -20 26 -20 8 0 -9 12 -14 24 -10
27 8 9 1 9 -13 -1z"/>
<path d="M1946 3317 c3 -10 9 -15 12 -12 3 3 0 11 -7 18 -10 9 -11 8 -5 -6z"/>
<path d="M1975 3311 c-3 -5 -2 -12 3 -15 5 -3 9 1 9 9 0 17 -3 19 -12 6z"/>
<path d="M1903 3263 c0 -9 4 -10 14 -2 7 6 13 12 13 14 0 1 -6 2 -13 2 -8 0
-14 -6 -14 -14z"/>
<path d="M1939 3253 c-13 -17 -13 -17 6 -3 11 8 22 16 24 17 2 2 0 3 -6 3 -6
0 -17 -8 -24 -17z"/>
<path d="M1912 3205 c-17 -19 -16 -20 3 -4 11 9 28 15 38 14 9 -2 17 1 17 5 0
16 -41 6 -58 -15z"/>
<path d="M1975 3189 c-4 -6 -5 -12 -2 -15 2 -3 7 2 10 11 7 17 1 20 -8 4z"/>
<path d="M1913 3167 c0 -8 6 -14 14 -14 9 0 10 4 2 14 -6 7 -12 13 -14 13 -1
0 -2 -6 -2 -13z"/>
<path d="M1976 3147 c3 -10 9 -15 12 -12 3 3 0 11 -7 18 -10 9 -11 8 -5 -6z"/>
<path d="M2017 3141 c-4 -17 -3 -21 5 -13 5 5 8 16 6 23 -3 8 -7 3 -11 -10z"/>
<path d="M1971 3106 c-9 -10 -8 -15 2 -19 8 -3 13 3 13 14 0 23 0 23 -15 5z"/>
</g>
</svg>
